<?xml version="1.0" encoding="UTF-8"?>
<svg version="1.1" xmlns="http://www.w3.org/2000/svg" width="200" height="200">
<path d="M0 0 C1.47847419 0.91908363 2.95769577 1.83696563 4.4375 2.75390625 C5.2521875 3.26711426 6.066875 3.78032227 6.90625 4.30908203 C11.63658936 7.25110164 16.44184364 10.0670886 21.23937988 12.8977356 C23.00957007 13.94315177 24.77798495 14.99151039 26.54589844 16.04077148 C33.09010981 19.92336668 39.65368928 23.76911747 46.25 27.5625 C54.72076596 32.43606596 63.10054113 37.45657638 71.46875 42.50390625 C76.20933109 45.36116242 80.95347853 48.2061965 85.75 50.96875 C86.51876465 51.41275146 87.2875293 51.85675293 88.07958984 52.31420898 C89.46170653 53.10912041 90.84712548 53.89833722 92.23681641 54.67993164 C97.85376159 57.91493319 102.99851159 61.56026738 106.625 67 C106.54496848 70.76148134 106.18695471 72.43804529 103.5 75.125 C98.82867118 78.1715188 94.38945384 80.75999081 89.1875 82.75 C83.94834789 84.77601653 79.00469162 87.25641677 74.00219727 89.79589844 C69.08281049 92.28733534 64.12399467 94.67275331 59.125 97 C52.9153345 99.89506109 46.7741798 102.90247079 40.65991211 105.9934082 C35.04293404 108.820979 29.36297327 111.50276154 23.64648438 114.12304688 C22.31408682 114.74011595 20.98817768 115.37137809 19.66894531 116.01611328 C18.2762108 116.68652896 16.86208989 117.31382961 15.43261719 117.90185547 C7.76198455 121.4351261 4.07904477 127.84500823 -0.25 134.75 C-1.03615984 135.97099767 -1.82418048 137.19079914 -2.61401367 138.40942383 C-4.1718402 140.81964488 -5.71850177 143.23638871 -7.25439453 145.66064453 C-9.08670898 148.54602296 -10.93859487 151.41631866 -12.80859375 154.27734375 C-16.26080126 159.56167829 -19.6736453 164.86756403 -23.01635742 170.22192383 C-23.46001144 170.93238358 -23.90366547 171.64284332 -24.36076355 172.37483215 C-24.69546158 172.91113754 -25.03015961 173.44744293 -25.375 174 C-24.82313522 173.92483154 -24.27127045 173.84966309 -23.7026825 173.7722168 C-17.91158719 172.98489057 -12.11917543 172.20784874 -6.32592773 171.43652344 C-4.16965552 171.14809561 -2.01372156 170.85712641 0.1418457 170.56347656 C3.25644888 170.13964257 6.37219062 169.7252384 9.48828125 169.3125 C10.43770096 169.18125732 11.38712067 169.05001465 12.36531067 168.91479492 C23.45815361 167.46659587 33.9996398 168.08123687 45.08984375 169.3203125 C47.01944946 169.5289669 47.01944946 169.5289669 48.98803711 169.74183655 C52.46031819 170.1176721 55.93173049 170.50101637 59.40299606 170.88610458 C62.30935552 171.20762099 65.21618162 171.52480426 68.12300968 171.84205151 C92.11998816 174.46196359 116.10502777 177.18558149 140.07815552 180.01542664 C145.58981767 180.66108575 151.10349113 181.26853633 156.62443542 181.82933044 C159.8304861 182.15527916 163.03501113 182.49498885 166.23953247 182.83560181 C167.67551225 182.98383931 169.11227064 183.12476627 170.54977417 183.25741577 C178.24129336 183.96742894 183.91439455 184.52840345 189.625 190 C189.625 190.66 189.625 191.32 189.625 192 C190.67300781 192.36351562 190.67300781 192.36351562 191.7421875 192.734375 C195.06524012 194.19327615 197.84333902 196.11322284 200.75 198.25 C201.3490918 198.68401123 201.94818359 199.11802246 202.56542969 199.56518555 C204.59059779 201.03633212 206.60862629 202.51682442 208.625 204 C209.3562207 204.5377002 210.08744141 205.07540039 210.84082031 205.62939453 C213.99307538 207.94959931 217.14379127 210.27185183 220.29101562 212.59887695 C226.62254253 217.27707311 232.9949528 221.89604021 239.39941406 226.47387695 C240.73905101 227.43546167 242.06994258 228.40940672 243.3896637 229.39814758 C245.5920402 231.02936355 245.5920402 231.02936355 247.94023132 232.34933472 C251.68678421 234.73519949 254.16693556 236.57892178 255.55957031 240.89936829 C256.02581083 244.48700488 256.21071159 247.98845109 256.29296875 251.60546875 C256.34834305 252.92106277 256.40371735 254.2366568 256.46076965 255.59211731 C256.5720861 258.37163913 256.65108109 261.14975405 256.70776367 263.9309082 C256.78288384 267.46469869 256.94463696 270.98840368 257.12903976 274.51794434 C258.31115136 298.36518438 258.31115136 298.36518438 253.23176575 305.141922 C251.20338213 307.32366328 248.95912966 309.15506051 246.625 311 C245.20937629 312.67482456 243.82749672 314.37949714 242.5 316.125 C241.85417969 316.93710937 241.20835937 317.74921875 240.54296875 318.5859375 C239.91003906 319.38257813 239.27710938 320.17921875 238.625 321 C237.3544614 322.58356985 236.08362218 324.16689855 234.8125 325.75 C232.05463376 329.19462901 229.32162212 332.65756349 226.60131836 336.13183594 C221.35980238 342.82606011 216.04813495 349.45130875 210.625 356 C209.87992188 357.04542969 209.13484375 358.09085938 208.3671875 359.16796875 C204.93810159 362.70940362 202.33783945 363.39514841 197.625 364.3125 C196.57699219 364.54549805 196.57699219 364.54549805 195.5078125 364.78320312 C193.55205817 365.21310007 191.58863632 365.60767512 189.625 366 C187.95832762 366.33330476 186.29165975 366.66663207 184.625 367 C192.72800382 369.38364079 200.86237592 371.61001743 209.0390625 373.7265625 C209.94928162 373.9624408 210.85950073 374.19831909 211.79730225 374.44134521 C215.58006882 375.42033542 219.3633338 376.39732025 223.14794922 377.36914062 C225.94603171 378.08847131 228.742628 378.81335577 231.5390625 379.5390625 C232.82026474 379.86567368 232.82026474 379.86567368 234.12734985 380.19888306 C234.92273163 380.4060495 235.7181134 380.61321594 236.53759766 380.82666016 C237.23261383 381.00556793 237.92763 381.18447571 238.64370728 381.36880493 C240.77071499 382.0464215 242.65607684 382.95414411 244.625 384 C244.72695723 397.01539346 244.40764445 409.99661855 243.96875 423.00390625 C243.90124761 425.06468428 243.83399139 427.12547038 243.76696777 429.18626404 C243.59185859 434.55044686 243.41345684 439.91451503 243.23431396 445.27856445 C243.05131356 450.77613775 242.87150351 456.27381535 242.69140625 461.77148438 C242.33901868 472.51442597 241.98314448 483.25724889 241.625 494 C236.43330223 495.77988532 231.26401186 497.43386522 225.93457031 498.76171875 C224.07653778 499.22735229 224.07653778 499.22735229 222.18096924 499.70239258 C220.85504783 500.03086942 219.52909905 500.35923576 218.203125 500.6875 C216.8121665 501.03447279 215.42127833 501.38172766 214.03045654 501.72924805 C211.1263049 502.45414138 208.22159561 503.17673797 205.31640625 503.89746094 C201.63016408 504.81197661 197.94494315 505.73052528 194.26008987 506.65061951 C190.6998023 507.53938895 187.13897169 508.42597387 183.578125 509.3125 C182.91773476 509.47712738 182.25734451 509.64175476 181.57694244 509.81137085 C174.85238114 511.48632851 168.12237162 513.13728982 161.37792969 514.73046875 C159.82268585 515.09821411 159.82268585 515.09821411 158.23602295 515.47338867 C155.625 516 155.625 516 152.625 516 C152.625 516.66 152.625 517.32 152.625 518 C153.36983643 518.04680908 154.11467285 518.09361816 154.88208008 518.1418457 C199.13596625 521.20419977 199.13596625 521.20419977 215.67138672 537.20703125 C218.94157085 540.20830996 222.5846776 542.63569034 226.25 545.125 C233.88765505 550.42813989 241.34256699 555.95223786 248.74267578 561.58105469 C250.09780584 562.60258723 251.46190484 563.61226099 252.83154297 564.61425781 C253.55615723 565.14631836 254.28077148 565.67837891 255.02734375 566.2265625 C255.69113037 566.70947754 256.35491699 567.19239258 257.03881836 567.68994141 C258.625 569 258.625 569 259.625 571 C259.75202247 572.93836663 259.81559821 574.88101586 259.84960938 576.82324219 C259.87212769 578.0450116 259.894646 579.26678101 259.91784668 580.52557373 C259.9935109 586.12040291 260.04654546 591.71534777 260.08496094 597.31054688 C260.10722799 600.26361275 260.14897959 603.21541303 260.20800781 606.16796875 C260.2792085 609.73659421 260.31580779 613.30402992 260.32807922 616.87332916 C260.34349655 618.88874254 260.39332607 620.90379805 260.44372559 622.91864014 C260.42417598 631.85966794 260.42417598 631.85966794 258.14389038 635.1133728 C256.37331957 636.65890316 254.65792404 637.82967241 252.625 639 C251.42438979 639.84933112 250.22835865 640.70520967 249.0390625 641.5703125 C247.77858289 642.42563202 246.51545278 643.27705567 245.25 644.125 C243.83399298 645.08629394 242.41865028 646.04856703 241.00390625 647.01171875 C240.28090332 647.50333496 239.55790039 647.99495117 238.81298828 648.50146484 C235.24595025 650.94449982 231.7159487 653.4391867 228.1875 655.9375 C227.49116455 656.43008301 226.7948291 656.92266602 226.07739258 657.43017578 C223.92608468 658.95273112 221.77551211 660.47632092 219.625 662 C216.56336976 664.16789863 213.5006555 666.33425725 210.4375 668.5 C209.74277588 668.99234131 209.04805176 669.48468262 208.33227539 669.99194336 C207.34215454 670.69202515 207.34215454 670.69202515 206.33203125 671.40625 C205.7594458 671.81166016 205.18686035 672.21707031 204.59692383 672.63476562 C203.94618896 673.08529297 203.2954541 673.53582031 202.625 674 C201.70130615 674.6902124 200.7776123 675.3804248 199.82592773 676.09155273 C196.24299465 678.22775805 193.8341496 678.71177325 189.703125 679.12890625 C189.01994202 679.2013002 188.33675903 679.27369415 187.63287354 679.34828186 C185.29845791 679.587135 182.96273394 679.79626265 180.625 680 C179.76753174 680.07724304 178.91006348 680.15448608 178.02661133 680.23406982 C172.20119784 680.75386829 166.37279412 681.22929408 160.54229736 681.6882019 C157.2849318 681.94458927 154.0279338 682.20527745 150.77099609 682.46704102 C146.38812083 682.81913614 142.00514224 683.16989308 137.62207031 683.51953125 C130.50858175 684.08809549 123.39652353 684.67300082 116.28515625 685.26745605 C114.23963464 685.43836606 112.19403961 685.60837687 110.1484375 685.77832031 C101.62440168 686.48835216 93.10194692 687.2159228 84.58004761 687.95115662 C79.87181846 688.35733344 75.16339849 688.76128106 70.45495033 689.16491032 C67.09717576 689.4529574 63.73953072 689.74237915 60.38214111 690.03488159 C56.60397507 690.3635448 52.82546913 690.68801951 49.046875 691.01171875 C47.91194611 691.11156067 46.77701721 691.21140259 45.60769653 691.31427002 C37.93622481 691.96592433 30.54299622 692.55002299 22.921875 691.1171875 C21.87418945 690.92261963 20.82650391 690.72805176 19.74707031 690.52758789 C18.63428711 690.31223389 17.52150391 690.09687988 16.375 689.875 C15.19260742 689.65126709 14.01021484 689.42753418 12.79199219 689.19702148 C3.2809615 687.37430416 -6.18396941 685.35650021 -15.64575195 683.2956543 C-25.2615137 681.21060224 -34.90624579 679.31518668 -44.57055664 677.4699707 C-52.69566321 675.91606518 -60.81149355 674.32056066 -68.921875 672.69140625 C-70.42422447 672.38972786 -70.42422447 672.38972786 -71.95692444 672.08195496 C-76.93663552 671.08122204 -81.91573417 670.07752245 -86.89428711 669.07104492 C-96.03465595 667.22859795 -105.16603699 665.47008029 -114.375 664 C-116.98556287 663.54757581 -119.5850707 663.06155741 -122.1875 662.5625 C-123.99154297 662.22412109 -123.99154297 662.22412109 -125.83203125 661.87890625 C-132.03143959 660.34101554 -136.86793021 657.96390006 -141.8125 653.9375 C-142.67746094 653.24527344 -143.54242187 652.55304687 -144.43359375 651.83984375 C-145.07425781 651.23269531 -145.71492187 650.62554688 -146.375 650 C-146.375 649.34 -146.375 648.68 -146.375 648 C-146.96941895 647.72397949 -147.56383789 647.44795898 -148.17626953 647.16357422 C-150.25774724 646.06205048 -151.79710824 644.93496751 -153.5546875 643.3828125 C-154.14717285 642.86388428 -154.7396582 642.34495605 -155.35009766 641.81030273 C-155.97706543 641.25415283 -156.6040332 640.69800293 -157.25 640.125 C-158.58822256 638.95145893 -159.9267723 637.77829086 -161.265625 636.60546875 C-161.94560547 636.00782715 -162.62558594 635.41018555 -163.32617188 634.79443359 C-166.53190699 631.98674137 -169.76419422 629.21042633 -173 626.4375 C-173.56702637 625.94975098 -174.13405273 625.46200195 -174.71826172 624.95947266 C-177.19471193 622.83542612 -179.68041579 620.76661624 -182.2734375 618.78515625 C-182.96695313 618.19605469 -183.66046875 617.60695313 -184.375 617 C-184.375 616.34 -184.375 615.68 -184.375 615 C-184.99375 614.690625 -185.6125 614.38125 -186.25 614.0625 C-187.625 613.375 -189 612.6875 -190.375 612 C-190.375 611.34 -190.375 610.68 -190.375 610 C-191.365 609.67 -192.355 609.34 -193.375 609 C-193.02136341 600.62247117 -192.24603574 592.58781734 -190.67480469 584.33984375 C-189.06755169 575.71668207 -187.96513819 567.0222909 -186.82104492 558.32763672 C-186.50619493 555.96889751 -186.18029429 553.61160047 -185.84204102 551.25610352 C-185.54456627 549.18217739 -185.2715171 547.10449467 -185.03100586 545.02319336 C-184.11251209 538.59022009 -184.11251209 538.59022009 -180.63671875 535.80859375 C-179.45722656 535.35613281 -178.27773438 534.90367187 -177.0625 534.4375 C-176.40443359 534.16977783 -175.74636719 533.90205566 -175.06835938 533.6262207 C-173.62109991 533.03847996 -172.16738479 532.46645297 -170.70849609 531.90820312 C-167.42641874 530.63080956 -164.20659997 529.22054603 -160.97705078 527.81665039 C-158.33753687 526.67124301 -155.69130813 525.54280622 -153.04296875 524.41796875 C-146.91161969 521.80817067 -140.7983238 519.1574421 -134.6875 516.5 C-133.18993164 515.84970825 -133.18993164 515.84970825 -131.66210938 515.1862793 C-130.27668945 514.58360229 -130.27668945 514.58360229 -128.86328125 513.96875 C-127.63411987 513.43411133 -127.63411987 513.43411133 -126.38012695 512.88867188 C-125.03068618 512.29059999 -123.69520616 511.66010308 -122.375 511 C-123.50292969 510.57702637 -124.63085938 510.15405273 -125.79296875 509.71826172 C-146.75 501.859375 -146.75 501.859375 -149.41311646 500.86058044 C-151.17918044 500.19839036 -152.94535478 499.53649453 -154.7116394 498.87489319 C-158.82746766 497.332844 -162.94171775 495.78697821 -167.05126953 494.22827148 C-167.77540039 493.95439606 -168.49953125 493.68052063 -169.24560547 493.39834595 C-171.17752697 492.66731099 -173.10857436 491.93396713 -175.03955078 491.20043945 C-178.31325849 489.97467137 -178.31325849 489.97467137 -181.49560547 489.13745117 C-184.18737509 488.33125639 -186.09675618 487.63460296 -188.375 486 C-189.15586853 483.81355286 -189.15586853 483.81355286 -189.52709961 481.14770508 C-189.67315643 480.15928619 -189.81921326 479.17086731 -189.96969604 478.15249634 C-190.10344635 477.11217255 -190.23719666 476.07184875 -190.375 475 C-190.51608185 474.00036224 -190.6571637 473.00072449 -190.80252075 471.97079468 C-191.24695131 468.757893 -191.65992227 465.54213263 -192.06640625 462.32421875 C-192.29166237 460.57103081 -192.29166237 460.57103081 -192.52146912 458.78242493 C-192.99619112 455.08445783 -193.46706952 451.38601526 -193.9375 447.6875 C-194.41211921 443.97121476 -194.88757026 440.25503918 -195.36424255 436.53901672 C-195.65940911 434.23644268 -195.95330055 431.93370472 -196.2457428 429.63078308 C-196.44616432 428.06303886 -196.44616432 428.06303886 -196.65063477 426.46362305 C-196.77358917 425.5011264 -196.89654358 424.53862976 -197.02322388 423.54696655 C-197.3069658 421.49258838 -197.66355443 419.44834735 -198.04272461 417.40942383 C-198.375 415 -198.375 415 -197.25 412.4375 C-194.34227964 408.65746353 -190.84495563 405.45807319 -187.4375 402.1328125 C-181.01304893 395.99421597 -181.01304893 395.99421597 -175.5 389.0625 C-173.55497662 386.25937807 -171.66406984 384.46024024 -168.98046875 382.390625 C-166.38456845 380.14210795 -164.31987352 377.44884616 -162.18359375 374.76953125 C-158.89634202 371.55327848 -154.7122068 370.7430442 -150.29296875 369.9296875 C-149.36162109 369.75566406 -148.43027344 369.58164062 -147.47070312 369.40234375 C-146.51099609 369.22832031 -145.55128906 369.05429687 -144.5625 368.875 C-143.09393555 368.60236328 -143.09393555 368.60236328 -141.59570312 368.32421875 C-139.18961131 367.87821149 -136.78274786 367.43696283 -134.375 367 C-139.5826569 362.72298901 -144.7932468 358.45104003 -150.0625 354.25 C-154.52216669 350.69364698 -158.95056507 347.09998376 -163.375 343.5 C-174.01500063 334.79458304 -174.01500063 334.79458304 -184.87109375 326.36328125 C-185.77275269 325.682052 -185.77275269 325.682052 -186.69262695 324.98706055 C-187.87830533 324.09351743 -189.06813485 323.20545063 -190.26245117 322.32348633 C-191.66969725 321.26227394 -193.02758783 320.13621904 -194.375 319 C-194.375 318.34 -194.375 317.68 -194.375 317 C-194.99375 316.690625 -195.6125 316.38125 -196.25 316.0625 C-197.625 315.375 -199 314.6875 -200.375 314 C-200.64421639 299.14822921 -200.20892128 284.39114301 -199.4375 269.5625 C-199.39393372 268.71066132 -199.35036743 267.85882263 -199.30548096 266.98117065 C-199.17764116 264.50935336 -199.04505076 262.03784782 -198.91015625 259.56640625 C-198.87155991 258.83584015 -198.83296356 258.10527405 -198.79319763 257.35256958 C-198.67281974 255.23328154 -198.52824392 253.11715035 -198.375 251 C-198.32632278 250.20198471 -198.27764557 249.40396942 -198.22749329 248.58177185 C-198.16386093 247.78586136 -198.10022858 246.98995087 -198.03466797 246.16992188 C-197.98253143 245.45002075 -197.9303949 244.73011963 -197.87667847 243.98840332 C-196.88922217 240.07461889 -193.61435767 238.13201912 -190.4375 235.9375 C-189.79103516 235.45345703 -189.14457031 234.96941406 -188.47851562 234.47070312 C-183.75109397 231 -183.75109397 231 -181.375 231 C-181.375 230.34 -181.375 229.68 -181.375 229 C-179.61535652 227.53809653 -177.78933225 226.15571415 -175.9375 224.8125 C-174.83660557 224.00868011 -173.73635154 223.20398245 -172.63671875 222.3984375 C-172.08677246 221.9972168 -171.53682617 221.59599609 -170.97021484 221.18261719 C-167.95259555 218.9454963 -165.03905061 216.57481011 -162.1171875 214.21484375 C-160.375 213 -160.375 213 -158.375 213 C-158.375 212.34 -158.375 211.68 -158.375 211 C-156.4609375 209.44140625 -156.4609375 209.44140625 -153.75 207.5625 C-149.06472506 204.24275208 -144.50507401 200.81038452 -140 197.25 C-139.41782715 196.79052979 -138.8356543 196.33105957 -138.23583984 195.85766602 C-137.67590332 195.41479248 -137.1159668 194.97191895 -136.5390625 194.515625 C-135.99934814 194.09079834 -135.45963379 193.66597168 -134.90356445 193.22827148 C-133.49778046 192.09865972 -132.13139731 190.92047083 -130.76953125 189.73828125 C-128.15098938 187.83738218 -126.6172207 187.35349353 -123.4375 186.9375 C-119.53759431 186.42415897 -115.63945126 185.90042797 -111.74291992 185.36206055 C-101.84055919 183.9954623 -91.93402622 182.6749004 -82.015625 181.4296875 C-80.99552841 181.30137039 -79.97543182 181.17305328 -78.92442322 181.04084778 C-74.74921542 180.51630721 -70.57388044 179.99287424 -66.39794922 179.47412109 C-63.29092219 179.08757163 -60.18449142 178.69650513 -57.078125 178.3046875 C-56.12939514 178.18801727 -55.18066528 178.07134705 -54.20318604 177.95114136 C-53.33337097 177.84077545 -52.46355591 177.73040955 -51.56738281 177.61669922 C-50.80323059 177.52137909 -50.03907837 177.42605896 -49.25177002 177.32785034 C-47.29189048 177.0778731 -47.29189048 177.0778731 -45.375 176 C-45.91688965 175.27018921 -45.91688965 175.27018921 -46.46972656 174.52563477 C-52.90395092 165.8508127 -59.30776276 157.16225634 -65.5 148.3125 C-69.36061424 142.79724543 -73.31147583 137.36749089 -77.375 132 C-81.9557006 125.94937309 -86.37190917 119.8026063 -90.72119141 113.58398438 C-95.19823054 107.2019775 -99.81687447 100.929461 -104.47998047 94.68237305 C-116.5050578 78.50289015 -116.5050578 78.50289015 -116.375 72 C-111.0520487 64.87878376 -95.51748474 64.2781684 -87.375 63 C-77.73428348 62.00622011 -68.05751826 62.00368577 -58.375 62 C-56.97379194 61.99377204 -55.5725872 61.98675289 -54.17138672 61.97900391 C-45.57196474 61.93434901 -36.97442151 61.9523753 -28.375 62 C-28.42733292 61.32427948 -28.47966583 60.64855896 -28.53358459 59.95236206 C-29.0773734 52.91256847 -29.61106033 45.87206053 -30.13891602 38.83105469 C-30.33717607 36.2042306 -30.53800177 33.57759884 -30.74145508 30.95117188 C-31.03362685 27.17365515 -31.31653262 23.3955405 -31.59765625 19.6171875 C-31.69031265 18.44509735 -31.78296906 17.2730072 -31.87843323 16.06539917 C-31.99867104 14.41436691 -31.99867104 14.41436691 -32.12133789 12.72998047 C-32.19461807 11.76623505 -32.26789825 10.80248962 -32.34339905 9.80953979 C-32.43019115 2.09313061 -32.43019115 2.09313061 -29.63671875 -0.80078125 C-27.11257281 -2.13914533 -25.00308252 -2.71214191 -22.1875 -3.1875 C-21.30707031 -3.34605469 -20.42664063 -3.50460937 -19.51953125 -3.66796875 C-11.77989246 -4.48519769 -6.71606077 -4.41764886 0 0 Z " fill="#555555" transform="translate(931.375,267)"/>
<path d="M0 0 C1.47847419 0.91908363 2.95769577 1.83696563 4.4375 2.75390625 C5.2521875 3.26711426 6.066875 3.78032227 6.90625 4.30908203 C11.63658936 7.25110164 16.44184364 10.0670886 21.23937988 12.8977356 C23.00957007 13.94315177 24.77798495 14.99151039 26.54589844 16.04077148 C33.09010981 19.92336668 39.65368928 23.76911747 46.25 27.5625 C54.72076596 32.43606596 63.10054113 37.45657638 71.46875 42.50390625 C76.20933109 45.36116242 80.95347853 48.2061965 85.75 50.96875 C86.51876465 51.41275146 87.2875293 51.85675293 88.07958984 52.31420898 C89.46170653 53.10912041 90.84712548 53.89833722 92.23681641 54.67993164 C97.85376159 57.91493319 102.99851159 61.56026738 106.625 67 C106.54496848 70.76148134 106.18695471 72.43804529 103.5 75.125 C98.82867118 78.1715188 94.38945384 80.75999081 89.1875 82.75 C83.94834789 84.77601653 79.00469162 87.25641677 74.00219727 89.79589844 C69.08281049 92.28733534 64.12399467 94.67275331 59.125 97 C52.9153345 99.89506109 46.7741798 102.90247079 40.65991211 105.9934082 C35.04293404 108.820979 29.36297327 111.50276154 23.64648438 114.12304688 C22.31408682 114.74011595 20.98817768 115.37137809 19.66894531 116.01611328 C18.2762108 116.68652896 16.86208989 117.31382961 15.43261719 117.90185547 C7.76198455 121.4351261 4.07904477 127.84500823 -0.25 134.75 C-1.03615984 135.97099767 -1.82418048 137.19079914 -2.61401367 138.40942383 C-4.1718402 140.81964488 -5.71850177 143.23638871 -7.25439453 145.66064453 C-9.08670898 148.54602296 -10.93859487 151.41631866 -12.80859375 154.27734375 C-16.26080126 159.56167829 -19.6736453 164.86756403 -23.01635742 170.22192383 C-23.46001144 170.93238358 -23.90366547 171.64284332 -24.36076355 172.37483215 C-24.69546158 172.91113754 -25.03015961 173.44744293 -25.375 174 C-24.82313522 173.92483154 -24.27127045 173.84966309 -23.7026825 173.7722168 C-17.91158719 172.98489057 -12.11917543 172.20784874 -6.32592773 171.43652344 C-4.16965552 171.14809561 -2.01372156 170.85712641 0.1418457 170.56347656 C3.25644888 170.13964257 6.37219062 169.7252384 9.48828125 169.3125 C10.43770096 169.18125732 11.38712067 169.05001465 12.36531067 168.91479492 C23.45815361 167.46659587 33.9996398 168.08123687 45.08984375 169.3203125 C47.01944946 169.5289669 47.01944946 169.5289669 48.98803711 169.74183655 C52.46031819 170.1176721 55.93173049 170.50101637 59.40299606 170.88610458 C62.30935552 171.20762099 65.21618162 171.52480426 68.12300968 171.84205151 C92.11998816 174.46196359 116.10502777 177.18558149 140.07815552 180.01542664 C145.58981767 180.66108575 151.10349113 181.26853633 156.62443542 181.82933044 C159.8304861 182.15527916 163.03501113 182.49498885 166.23953247 182.83560181 C167.67551225 182.98383931 169.11227064 183.12476627 170.54977417 183.25741577 C178.24129336 183.96742894 183.91439455 184.52840345 189.625 190 C189.625 190.66 189.625 191.32 189.625 192 C190.67300781 192.36351562 190.67300781 192.36351562 191.7421875 192.734375 C195.06524012 194.19327615 197.84333902 196.11322284 200.75 198.25 C201.3490918 198.68401123 201.94818359 199.11802246 202.56542969 199.56518555 C204.59059779 201.03633212 206.60862629 202.51682442 208.625 204 C209.3562207 204.5377002 210.08744141 205.07540039 210.84082031 205.62939453 C213.99307538 207.94959931 217.14379127 210.27185183 220.29101562 212.59887695 C226.62254253 217.27707311 232.9949528 221.89604021 239.39941406 226.47387695 C240.73905101 227.43546167 242.06994258 228.40940672 243.3896637 229.39814758 C245.5920402 231.02936355 245.5920402 231.02936355 247.94023132 232.34933472 C251.68678421 234.73519949 254.16693556 236.57892178 255.55957031 240.89936829 C256.02581083 244.48700488 256.21071159 247.98845109 256.29296875 251.60546875 C256.34834305 252.92106277 256.40371735 254.2366568 256.46076965 255.59211731 C256.5720861 258.37163913 256.65108109 261.14975405 256.70776367 263.9309082 C256.78288384 267.46469869 256.94463696 270.98840368 257.12903976 274.51794434 C258.31115136 298.36518438 258.31115136 298.36518438 253.23176575 305.141922 C251.20338213 307.32366328 248.95912966 309.15506051 246.625 311 C245.20937629 312.67482456 243.82749672 314.37949714 242.5 316.125 C241.85417969 316.93710937 241.20835937 317.74921875 240.54296875 318.5859375 C239.91003906 319.38257813 239.27710938 320.17921875 238.625 321 C237.3544614 322.58356985 236.08362218 324.16689855 234.8125 325.75 C232.05463376 329.19462901 229.32162212 332.65756349 226.60131836 336.13183594 C221.35980238 342.82606011 216.04813495 349.45130875 210.625 356 C209.85542969 357.04929687 209.08585937 358.09859375 208.29296875 359.1796875 C205.13605284 362.51686654 203.26216058 363.14882313 198.8125 364.125 C198.13743408 364.27767334 197.46236816 364.43034668 196.7668457 364.58764648 C189.34478445 366.19963697 181.8219011 367.37710923 174.31518555 368.51806641 C168.45694873 369.4274484 162.84644912 370.68148137 157.14575195 372.30639648 C153.74120332 373.24318318 150.35259924 373.88371659 146.875 374.5 C145.49467379 374.75065379 144.11446804 375.00197175 142.734375 375.25390625 C141.70666992 375.43977295 141.70666992 375.43977295 140.65820312 375.62939453 C131.57711667 377.28466461 122.61143342 379.21076341 113.67797852 381.51928711 C108.99997139 382.70849561 104.31459217 383.65939179 99.5625 384.5 C93.07180428 385.6492707 86.79243699 387.25967321 80.4375 389.0234375 C75.09473651 390.39197323 69.71383233 391.35050661 64.28125 392.2890625 C60.59173867 392.94829699 60.59173867 392.94829699 56.93359375 394.078125 C52.91129808 395.19885909 49.76767203 395.14535691 45.625 395 C43.71581278 391.64668398 42.97742301 388.46582072 42.25 384.6875 C42.1247998 384.04216309 41.99959961 383.39682617 41.87060547 382.73193359 C40.56745585 375.91217003 39.42375541 369.06390323 38.25317383 362.22045898 C36.92550551 354.54088297 35.46420538 346.89238376 33.9375 339.25 C33.72303223 338.17250488 33.50856445 337.09500977 33.28759766 335.98486328 C32.18246773 330.43373276 32.18246773 330.43373276 30.625 325 C29.41444946 324.84966309 29.41444946 324.84966309 28.17944336 324.69628906 C11.5073345 322.62387697 -5.16096417 320.52589769 -21.8215332 318.36254883 C-28.25321463 317.5280677 -34.68602843 316.71351151 -41.125 315.9375 C-47.42433143 315.16124651 -53.68460727 314.19697226 -59.94238281 313.14038086 C-64.96437137 312.31257436 -69.99885287 311.67445502 -75.0546875 311.09375 C-84.75723978 309.97927683 -94.43513142 308.69436283 -104.11450195 307.39550781 C-108.04060035 306.8687766 -111.96717199 306.34561393 -115.89378357 305.82272339 C-117.78787887 305.56830697 -119.68150086 305.31033861 -121.57460022 305.0486145 C-125.60200858 304.492427 -129.61996635 303.95810121 -133.66772461 303.57373047 C-144.389961 302.4364702 -144.389961 302.4364702 -148.31323242 297.81176758 C-148.93161987 296.97681763 -148.93161987 296.97681763 -149.5625 296.125 C-150.54106289 294.94351008 -151.52024395 293.76253193 -152.5 292.58203125 C-152.97566406 291.98342285 -153.45132813 291.38481445 -153.94140625 290.76806641 C-156.18789267 287.99745083 -158.62691116 285.41619257 -161.0625 282.8125 C-165.0957126 278.42314281 -169.08465073 273.99459588 -173.06640625 269.55859375 C-175.63386753 266.71309944 -178.22113859 263.88619349 -180.8125 261.0625 C-181.26858643 260.56371338 -181.72467285 260.06492676 -182.19458008 259.55102539 C-184.54443991 256.9830561 -186.9077177 254.42992077 -189.296875 251.8984375 C-189.7616626 251.40077881 -190.2264502 250.90312012 -190.70532227 250.39038086 C-191.9901933 249.0149055 -193.28200577 247.64592391 -194.57421875 246.27734375 C-196.375 244 -196.375 244 -196.375 241 C-194.28771178 239.13319997 -192.2423127 237.47058144 -190 235.8125 C-189.39671875 235.34908203 -188.7934375 234.88566406 -188.171875 234.40820312 C-183.65437454 231 -183.65437454 231 -181.375 231 C-181.375 230.34 -181.375 229.68 -181.375 229 C-179.61535652 227.53809653 -177.78933225 226.15571415 -175.9375 224.8125 C-174.83660557 224.00868011 -173.73635154 223.20398245 -172.63671875 222.3984375 C-172.08677246 221.9972168 -171.53682617 221.59599609 -170.97021484 221.18261719 C-167.95259555 218.9454963 -165.03905061 216.57481011 -162.1171875 214.21484375 C-160.375 213 -160.375 213 -158.375 213 C-158.375 212.34 -158.375 211.68 -158.375 211 C-156.4609375 209.44140625 -156.4609375 209.44140625 -153.75 207.5625 C-149.06472506 204.24275208 -144.50507401 200.81038452 -140 197.25 C-139.41782715 196.79052979 -138.8356543 196.33105957 -138.23583984 195.85766602 C-137.67590332 195.41479248 -137.1159668 194.97191895 -136.5390625 194.515625 C-135.99934814 194.09079834 -135.45963379 193.66597168 -134.90356445 193.22827148 C-133.49778046 192.09865972 -132.13139731 190.92047083 -130.76953125 189.73828125 C-128.15098938 187.83738218 -126.6172207 187.35349353 -123.4375 186.9375 C-119.53759431 186.42415897 -115.63945126 185.90042797 -111.74291992 185.36206055 C-101.84055919 183.9954623 -91.93402622 182.6749004 -82.015625 181.4296875 C-80.99552841 181.30137039 -79.97543182 181.17305328 -78.92442322 181.04084778 C-74.74921542 180.51630721 -70.57388044 179.99287424 -66.39794922 179.47412109 C-63.29092219 179.08757163 -60.18449142 178.69650513 -57.078125 178.3046875 C-56.12939514 178.18801727 -55.18066528 178.07134705 -54.20318604 177.95114136 C-53.33337097 177.84077545 -52.46355591 177.73040955 -51.56738281 177.61669922 C-50.80323059 177.52137909 -50.03907837 177.42605896 -49.25177002 177.32785034 C-47.29189048 177.0778731 -47.29189048 177.0778731 -45.375 176 C-45.91688965 175.27018921 -45.91688965 175.27018921 -46.46972656 174.52563477 C-52.90395092 165.8508127 -59.30776276 157.16225634 -65.5 148.3125 C-69.36061424 142.79724543 -73.31147583 137.36749089 -77.375 132 C-81.9557006 125.94937309 -86.37190917 119.8026063 -90.72119141 113.58398438 C-95.19823054 107.2019775 -99.81687447 100.929461 -104.47998047 94.68237305 C-116.5050578 78.50289015 -116.5050578 78.50289015 -116.375 72 C-111.0520487 64.87878376 -95.51748474 64.2781684 -87.375 63 C-77.73428348 62.00622011 -68.05751826 62.00368577 -58.375 62 C-56.97379194 61.99377204 -55.5725872 61.98675289 -54.17138672 61.97900391 C-45.57196474 61.93434901 -36.97442151 61.9523753 -28.375 62 C-28.42733292 61.32427948 -28.47966583 60.64855896 -28.53358459 59.95236206 C-29.0773734 52.91256847 -29.61106033 45.87206053 -30.13891602 38.83105469 C-30.33717607 36.2042306 -30.53800177 33.57759884 -30.74145508 30.95117188 C-31.03362685 27.17365515 -31.31653262 23.3955405 -31.59765625 19.6171875 C-31.69031265 18.44509735 -31.78296906 17.2730072 -31.87843323 16.06539917 C-31.99867104 14.41436691 -31.99867104 14.41436691 -32.12133789 12.72998047 C-32.19461807 11.76623505 -32.26789825 10.80248962 -32.34339905 9.80953979 C-32.43019115 2.09313061 -32.43019115 2.09313061 -29.63671875 -0.80078125 C-27.11257281 -2.13914533 -25.00308252 -2.71214191 -22.1875 -3.1875 C-21.30707031 -3.34605469 -20.42664063 -3.50460937 -19.51953125 -3.66796875 C-11.77989246 -4.48519769 -6.71606077 -4.41764886 0 0 Z " fill="#6B6B6B" transform="translate(931.375,267)"/>
<path d="M0 0 C8.83201755 2.67027535 17.60825184 5.4830961 26.35864258 8.40942383 C28.32754182 9.06752772 30.29750483 9.72237331 32.26757812 10.37695312 C33.5495434 10.80449494 34.83144669 11.23222267 36.11328125 11.66015625 C37.24548096 12.03793213 38.37768066 12.41570801 39.54418945 12.80493164 C41.96939521 13.64360223 44.36578053 14.50743275 46.76318359 15.41796875 C51.69367318 17.2819861 56.68283771 18.96430298 61.67578125 20.65234375 C62.68158737 20.99374893 63.68739349 21.33515411 64.72367859 21.68690491 C67.91954515 22.77164176 71.11595498 23.85476422 74.3125 24.9375 C78.51739743 26.36189903 82.72173983 27.78792052 86.92578125 29.21484375 C87.8719783 29.53476791 88.81817535 29.85469208 89.79304504 30.18431091 C96.22826777 32.3686058 102.62204787 34.65385973 109 37 C112.23505114 59.84618881 112.23505114 59.84618881 112.7890625 68.85546875 C112.93801949 71.18379861 112.93801949 71.18379861 114 74 C114.36663537 76.89584653 114.69964152 79.78481686 115 82.6875 C115.16612049 84.25396427 115.33278357 85.82037109 115.5 87.38671875 C115.5812915 88.15741699 115.66258301 88.92811523 115.74633789 89.72216797 C115.9887365 91.89885618 116.26896125 94.06744844 116.55859375 96.23828125 C116.92714393 99.37911158 117.10632197 102.34481842 117.0625 105.5 C117.05347656 106.3559375 117.04445313 107.211875 117.03515625 108.09375 C117.02355469 108.7228125 117.01195312 109.351875 117 110 C115.97519531 110.04898438 114.95039062 110.09796875 113.89453125 110.1484375 C112.5338294 110.22351071 111.17315356 110.29905655 109.8125 110.375 C109.13896484 110.4059375 108.46542969 110.436875 107.77148438 110.46875 C102.09547444 110.78188704 102.09547444 110.78188704 97 113 C92.94248688 118.10992569 90.3671798 124.22193725 87.6875 130.125 C84.31337997 137.42224942 80.63774623 144.40315714 76.53125 151.3125 C74.90210713 153.96886664 74.90210713 153.96886664 74 157 C77.48294501 158.41599499 80.99194791 159.74889853 84.51757812 161.0546875 C91.0354165 163.4700851 97.47430731 166.00541288 103.875 168.71875 C107.55490525 170.22751115 111.2707335 171.61888756 115 173 C120.69239145 175.11012794 126.31665417 177.32914414 131.90234375 179.7109375 C134.2599399 180.69203047 136.61889077 181.6292504 139.00390625 182.5390625 C139.68767334 182.80267578 140.37144043 183.06628906 141.07592773 183.33789062 C142.4149056 183.8522317 143.75679096 184.35908335 145.10180664 184.85742188 C148.57427028 186.20023658 149.8717144 186.8075716 152 190 C154.7470607 190.89576861 154.7470607 190.89576861 158.05444336 191.42626953 C159.32593735 191.66306427 160.59743134 191.89985901 161.90745544 192.14382935 C163.30154899 192.39036012 164.69567934 192.6366828 166.08984375 192.8828125 C167.5149088 193.14400402 168.93975724 193.40637994 170.36439514 193.66989136 C174.11779059 194.36114515 177.87371678 195.03750353 181.63043213 195.71044922 C186.19170769 196.53005248 190.75008325 197.36559679 195.30860996 198.20033073 C198.85607439 198.84983471 202.40398114 199.49641735 205.95359802 200.13406372 C207.22824417 200.36455414 208.50289032 200.59504456 209.81616211 200.83251953 C210.94042099 201.03442902 212.06467987 201.2363385 213.2230072 201.44436646 C216 202 216 202 219 203 C219.14695312 204.13824219 219.29390625 205.27648437 219.4453125 206.44921875 C219.67176952 208.19532618 219.89834516 209.94141823 220.125 211.6875 C220.25044189 212.656875 220.37588379 213.62625 220.50512695 214.625 C221.35904053 221.18772724 222.23454436 227.7471083 223.12738037 234.30464172 C223.6777306 238.34834848 224.224675 242.39251388 224.77166748 246.43667603 C225.04820186 248.47382885 225.326392 250.51075762 225.60626221 252.54745483 C226.00604955 255.45816383 226.40003489 258.36960899 226.79296875 261.28125 C226.91470963 262.1565889 227.0364505 263.0319278 227.16188049 263.93379211 C227.79535299 268.67267202 228.12469062 273.21898234 228 278 C220.33225418 276.75086848 212.68960364 275.41426682 205.0625 273.9375 C203.97517578 273.72762451 202.88785156 273.51774902 201.76757812 273.30151367 C179.43609214 268.96851622 157.14162959 264.44245298 134.84042358 259.9568634 C130.30732555 259.04546762 125.77392391 258.13558781 121.24047852 257.22592163 C119.06129045 256.78821957 116.88225051 256.34977924 114.70336914 255.91055298 C104.15711397 253.78463085 93.62684074 251.6880061 83 250 C80.38942028 249.54771641 77.78991959 249.06155554 75.1875 248.5625 C73.38345703 248.22412109 73.38345703 248.22412109 71.54296875 247.87890625 C65.34356041 246.34101554 60.50706979 243.96390006 55.5625 239.9375 C54.69753906 239.24527344 53.83257813 238.55304688 52.94140625 237.83984375 C52.30074219 237.23269531 51.66007813 236.62554688 51 236 C51 235.34 51 234.68 51 234 C50.40558105 233.72397949 49.81116211 233.44795898 49.19873047 233.16357422 C47.11725276 232.06205048 45.57789176 230.93496751 43.8203125 229.3828125 C42.93158447 228.60442017 42.93158447 228.60442017 42.02490234 227.81030273 C41.39793457 227.25415283 40.7709668 226.69800293 40.125 226.125 C38.78677744 224.95145893 37.4482277 223.77829086 36.109375 222.60546875 C35.42939453 222.00782715 34.74941406 221.41018555 34.04882812 220.79443359 C30.84309301 217.98674137 27.61080578 215.21042633 24.375 212.4375 C23.80797363 211.94975098 23.24094727 211.46200195 22.65673828 210.95947266 C20.18028807 208.83542612 17.69458421 206.76661624 15.1015625 204.78515625 C14.40804687 204.19605469 13.71453125 203.60695313 13 203 C13 202.34 13 201.68 13 201 C12.38125 200.690625 11.7625 200.38125 11.125 200.0625 C9.75 199.375 8.375 198.6875 7 198 C7 197.34 7 196.68 7 196 C6.01 195.67 5.02 195.34 4 195 C4.35363659 186.62247117 5.12896426 178.58781734 6.70019531 170.33984375 C8.30744831 161.71668207 9.40986181 153.0222909 10.55395508 144.32763672 C10.86880507 141.96889751 11.19470571 139.61160047 11.53295898 137.25610352 C11.83043373 135.18217739 12.1034829 133.10449467 12.34399414 131.02319336 C13.26248791 124.59022009 13.26248791 124.59022009 16.73828125 121.80859375 C17.91777344 121.35613281 19.09726562 120.90367187 20.3125 120.4375 C20.97056641 120.16977783 21.62863281 119.90205566 22.30664062 119.6262207 C23.75390009 119.03847996 25.20761521 118.46645297 26.66650391 117.90820312 C29.94858126 116.63080956 33.16840003 115.22054603 36.39794922 113.81665039 C39.03746313 112.67124301 41.68369187 111.54280622 44.33203125 110.41796875 C50.46338031 107.80817067 56.5766762 105.1574421 62.6875 102.5 C63.68587891 102.06647217 64.68425781 101.63294434 65.71289062 101.1862793 C66.63650391 100.78449463 67.56011719 100.38270996 68.51171875 99.96875 C69.33115967 99.61232422 70.15060059 99.25589844 70.99487305 98.88867188 C72.34431382 98.29059999 73.67979384 97.66010308 75 97 C73.87207031 96.57702637 72.74414062 96.15405273 71.58203125 95.71826172 C50.625 87.859375 50.625 87.859375 47.96188354 86.86058044 C46.19581956 86.19839036 44.42964522 85.53649453 42.6633606 84.87489319 C38.54753234 83.332844 34.43328225 81.78697821 30.32373047 80.22827148 C29.59959961 79.95439606 28.87546875 79.68052063 28.12939453 79.39834595 C26.19747303 78.66731099 24.26642564 77.93396713 22.33544922 77.20043945 C19.06174151 75.97467137 19.06174151 75.97467137 15.87939453 75.13745117 C13.18762491 74.33125639 11.27824382 73.63460296 9 72 C8.21913147 69.81355286 8.21913147 69.81355286 7.84790039 67.14770508 C7.70184357 66.15928619 7.55578674 65.17086731 7.40530396 64.15249634 C7.27155365 63.11217255 7.13780334 62.07184875 7 61 C6.85891815 60.00036224 6.7178363 59.00072449 6.57247925 57.97079468 C6.12804869 54.757893 5.71507773 51.54213263 5.30859375 48.32421875 C5.158423 47.15542679 5.00825226 45.98663483 4.85353088 44.78242493 C4.37880888 41.08445783 3.90793048 37.38601526 3.4375 33.6875 C2.96288079 29.97121476 2.48742974 26.25503918 2.01075745 22.53901672 C1.71559089 20.23644268 1.42169945 17.93370472 1.1292572 15.63078308 C0.60185045 11.50528363 0.07275123 7.40660483 -0.65991211 3.31176758 C-0.77214111 2.54888428 -0.88437012 1.78600098 -1 1 C-0.67 0.67 -0.34 0.34 0 0 Z " fill="#333333" transform="translate(734,681)"/>
<path d="M0 0 C1.47847419 0.91908363 2.95769577 1.83696563 4.4375 2.75390625 C5.2521875 3.26711426 6.066875 3.78032227 6.90625 4.30908203 C11.63658936 7.25110164 16.44184364 10.0670886 21.23937988 12.8977356 C23.00957007 13.94315177 24.77798495 14.99151039 26.54589844 16.04077148 C33.09010981 19.92336668 39.65368928 23.76911747 46.25 27.5625 C54.72076596 32.43606596 63.10054113 37.45657638 71.46875 42.50390625 C76.20933109 45.36116242 80.95347853 48.2061965 85.75 50.96875 C86.90314697 51.6347522 86.90314697 51.6347522 88.07958984 52.31420898 C89.46170653 53.10912041 90.84712548 53.89833722 92.23681641 54.67993164 C97.85376159 57.91493319 102.99851159 61.56026738 106.625 67 C106.54496848 70.76148134 106.18695471 72.43804529 103.5 75.125 C98.82867118 78.1715188 94.38945384 80.75999081 89.1875 82.75 C83.94834789 84.77601653 79.00469162 87.25641677 74.00219727 89.79589844 C69.08281049 92.28733534 64.12399467 94.67275331 59.125 97 C52.9153345 99.89506109 46.7741798 102.90247079 40.65991211 105.9934082 C35.04293404 108.820979 29.36297327 111.50276154 23.64648438 114.12304688 C22.31408682 114.74011595 20.98817768 115.37137809 19.66894531 116.01611328 C18.2762108 116.68652896 16.86208989 117.31382961 15.43261719 117.90185547 C7.76165687 121.43527704 4.07969408 127.84522384 -0.25 134.75 C-1.03759567 135.97248199 -1.82708185 137.19374797 -2.6184082 138.41381836 C-4.17796838 140.82533875 -5.72630072 143.24339809 -7.26318359 145.66943359 C-10.00035574 149.98625468 -12.78153098 154.27384279 -15.5625 158.5625 C-16.41277246 159.88020056 -17.26303356 161.19790845 -18.11328125 162.515625 C-27.59867684 177.16002406 -27.59867684 177.16002406 -32.375 180 C-33.695 180 -35.015 180 -36.375 180 C-38.18707508 177.56066816 -39.29505393 175.20985843 -40.375 172.375 C-41.42330443 169.88527697 -42.45573468 168.84249471 -44.375 167 C-47.375 162.44444444 -47.375 162.44444444 -47.375 160 C-47.98005371 159.90428711 -48.58510742 159.80857422 -49.20849609 159.70996094 C-51.87245086 158.8369859 -52.49540029 157.9451134 -54.0390625 155.640625 C-54.51690186 154.94275879 -54.99474121 154.24489258 -55.48706055 153.52587891 C-55.98633057 152.77483887 -56.48560059 152.02379883 -57 151.25 C-58.0587407 149.69884081 -59.11997419 148.14938036 -60.18359375 146.6015625 C-60.71452637 145.8271582 -61.24545898 145.05275391 -61.79248047 144.25488281 C-64.86048045 139.88338515 -68.19264804 135.72098573 -71.51171875 131.5390625 C-73.375 129 -73.375 129 -74.375 126 C-75.35148017 124.97702078 -76.35631338 123.98095748 -77.375 123 C-81.375 118.31428571 -81.375 118.31428571 -81.375 116 C-82.035 116 -82.695 116 -83.375 116 C-83.643125 115.46632813 -83.91125 114.93265625 -84.1875 114.3828125 C-87.07215709 108.89816842 -90.43351566 104.20537636 -94.41015625 99.45703125 C-96.58148188 96.74179503 -98.44842028 93.89349097 -100.375 91 C-102.06842703 88.72191753 -103.81292949 86.48513413 -105.5625 84.25 C-110.24330357 78.26339286 -110.24330357 78.26339286 -111.375 76 C-113.85 76.495 -113.85 76.495 -116.375 77 C-116.74157663 72.4788882 -116.74157663 72.4788882 -115.17333984 70.43017578 C-101.80400153 59.79786736 -74.4395702 62.00611518 -58.375 62 C-56.97379194 61.99377204 -55.5725872 61.98675289 -54.17138672 61.97900391 C-45.57196474 61.93434901 -36.97442151 61.9523753 -28.375 62 C-28.42733292 61.32427948 -28.47966583 60.64855896 -28.53358459 59.95236206 C-29.0773734 52.91256847 -29.61106033 45.87206053 -30.13891602 38.83105469 C-30.33717607 36.2042306 -30.53800177 33.57759884 -30.74145508 30.95117188 C-31.03362685 27.17365515 -31.31653262 23.3955405 -31.59765625 19.6171875 C-31.69031265 18.44509735 -31.78296906 17.2730072 -31.87843323 16.06539917 C-31.95859177 14.964711 -32.03875031 13.86402283 -32.12133789 12.72998047 C-32.19461807 11.76623505 -32.26789825 10.80248962 -32.34339905 9.80953979 C-32.43019115 2.09313061 -32.43019115 2.09313061 -29.63671875 -0.80078125 C-27.11257281 -2.13914533 -25.00308252 -2.71214191 -22.1875 -3.1875 C-21.30707031 -3.34605469 -20.42664063 -3.50460937 -19.51953125 -3.66796875 C-11.77989246 -4.48519769 -6.71606077 -4.41764886 0 0 Z " fill="#D0D0D0" transform="translate(931.375,267)"/>
<path d="M0 0 C2.68323539 2.68323539 2.28012745 4.06949798 2.33813477 7.82324219 C2.36057755 9.0450116 2.38302032 10.26678101 2.40614319 11.52557373 C2.41916063 12.86599582 2.43088276 14.20643102 2.44140625 15.546875 C2.45176061 16.55891872 2.45176061 16.55891872 2.46232414 17.59140778 C2.49818476 21.16445659 2.52170803 24.73734705 2.53540039 28.31054688 C2.55192479 31.99437212 2.61030065 35.67626936 2.67854404 39.35944748 C2.72342647 42.19745234 2.73690191 45.03499988 2.74201775 47.87332916 C2.75371365 49.88868771 2.79876758 51.90376377 2.84437561 53.91864014 C2.80145407 62.85813488 2.80145407 62.85813488 0.5166626 66.1133728 C-1.25323788 67.65834366 -2.96816551 68.82952026 -5 70 C-6.20058137 70.84937189 -7.39660769 71.70525595 -8.5859375 72.5703125 C-9.84641711 73.42563202 -11.10954722 74.27705567 -12.375 75.125 C-13.79100702 76.08629394 -15.20634972 77.04856703 -16.62109375 78.01171875 C-17.34409668 78.50333496 -18.06709961 78.99495117 -18.81201172 79.50146484 C-22.37904975 81.94449982 -25.9090513 84.4391867 -29.4375 86.9375 C-30.13383545 87.43008301 -30.8301709 87.92266602 -31.54760742 88.43017578 C-33.69891532 89.95273112 -35.84948789 91.47632092 -38 93 C-41.06163024 95.16789863 -44.1243445 97.33425725 -47.1875 99.5 C-47.88222412 99.99234131 -48.57694824 100.48468262 -49.29272461 100.99194336 C-49.95280518 101.45866455 -50.61288574 101.92538574 -51.29296875 102.40625 C-51.8655542 102.81166016 -52.43813965 103.21707031 -53.02807617 103.63476562 C-53.67881104 104.08529297 -54.3295459 104.53582031 -55 105 C-55.92369385 105.6902124 -56.8473877 106.3804248 -57.79907227 107.09155273 C-61.38200535 109.22775805 -63.7908504 109.71177325 -67.921875 110.12890625 C-68.60505798 110.2013002 -69.28824097 110.27369415 -69.99212646 110.34828186 C-72.32654209 110.587135 -74.66226606 110.79626265 -77 111 C-77.85746826 111.07724304 -78.71493652 111.15448608 -79.59838867 111.23406982 C-85.42380216 111.75386829 -91.25220588 112.22929408 -97.08270264 112.6882019 C-100.3400682 112.94458927 -103.5970662 113.20527745 -106.85400391 113.46704102 C-111.23687917 113.81913614 -115.61985776 114.16989308 -120.00292969 114.51953125 C-127.1165998 115.08811 -134.22884274 115.67300328 -141.34039307 116.26745605 C-143.38427413 116.43827509 -145.42821879 116.60831845 -147.47216797 116.77832031 C-156.68353924 117.54629684 -165.89328316 118.33273488 -175.10273361 119.12339592 C-179.15964173 119.47141569 -183.21666065 119.81814221 -187.27367592 120.16491032 C-190.64715923 120.45342023 -194.0205451 120.74299208 -197.39373779 121.03488159 C-201.18678123 121.36274925 -204.98007904 121.68751908 -208.7734375 122.01171875 C-209.91868896 122.11156067 -211.06394043 122.21140259 -212.24389648 122.31427002 C-213.30987061 122.40480652 -214.37584473 122.49534302 -215.47412109 122.58862305 C-216.40034271 122.6683989 -217.32656433 122.74817474 -218.28085327 122.83036804 C-221.19375929 123.01208753 -224.08218505 123.02826007 -227 123 C-229.09863624 108.22350897 -231.13135583 93.43736873 -232.98254395 78.62765503 C-233.15838607 77.22880328 -233.33693721 75.83028892 -233.51843262 74.43215942 C-234.66488935 65.57143855 -235.23912523 56.93493327 -235 48 C-232.27374626 47.24593105 -229.75889565 46.84392958 -226.9349823 46.72668457 C-226.13083326 46.69149719 -225.32668423 46.65630981 -224.49816704 46.62005615 C-223.62116205 46.5862384 -222.74415707 46.55242065 -221.84057617 46.51757812 C-220.90543245 46.47872498 -219.97028873 46.43987183 -219.00680733 46.39984131 C-215.87320846 46.27190749 -212.73938271 46.15120253 -209.60546875 46.03125 C-208.51198812 45.9879808 -207.4185075 45.94471161 -206.2918911 45.90013123 C-189.02385902 45.21982196 -171.7553355 44.75080551 -154.47839737 44.36901855 C-146.69480682 44.19226979 -138.91180347 43.99089082 -131.1288166 43.78948975 C-124.49522678 43.62016466 -117.86201045 43.46850661 -111.22729492 43.35351562 C-104.64539964 43.23930488 -98.06597541 43.07434058 -91.48589134 42.87962341 C-89.02298444 42.814973 -86.55957567 42.76691495 -84.09600258 42.73695374 C-68.70334187 42.53919003 -58.8470995 41.05639813 -47 31 C-45.1344457 29.74029595 -43.25347628 28.50260116 -41.34765625 27.3046875 C-40.48019775 26.74144775 -39.61273926 26.17820801 -38.71899414 25.59790039 C-37.84235107 25.02934326 -36.96570801 24.46078613 -36.0625 23.875 C-23.97503272 16.01573922 -11.98034194 8.02137119 0 0 Z " fill="#808080" transform="translate(1189,836)"/>
<path d="M0 0 C3.62278586 3.57676136 7.12168675 7.24747944 10.5625 11 C11.62234353 12.15239185 12.68224093 13.30473417 13.7421875 14.45703125 C14.28069336 15.04307129 14.81919922 15.62911133 15.37402344 16.23291016 C16.95731959 17.95361549 18.54426184 19.67086438 20.1328125 21.38671875 C25.36605819 27.04025532 30.5672522 32.71807942 35.70703125 38.45703125 C37.40364411 40.33862404 39.10822182 42.21046023 40.82421875 44.07421875 C41.31011475 44.60200928 41.79601074 45.1297998 42.29663086 45.67358398 C43.67047356 47.1637406 45.0461193 48.65223433 46.421875 50.140625 C49 53 49 53 51.20214844 56.08251953 C54.12846137 59.58556486 56.8074793 60.00554929 61.34375 60.5390625 C62.0573468 60.63075211 62.7709436 60.72244171 63.50616455 60.81690979 C65.83517583 61.11069873 68.1666935 61.36777691 70.5 61.625 C72.12174649 61.82326937 73.74316655 62.02422604 75.36425781 62.2277832 C78.65627057 62.63858064 81.9494265 63.03677769 85.24414062 63.42529297 C92.09428214 64.24122201 98.91986681 65.21994703 105.75 66.1875 C117.52130374 67.81508431 129.29422864 69.36952107 141.10546875 70.6796875 C161.06723886 72.90706221 161.06723886 72.90706221 170 74.5 C178.29517317 75.97732809 186.62542618 76.9365932 194.99755859 77.8684082 C206.01852517 79.09665334 217.00922915 80.52853348 228 82 C230.13817189 87.36664248 231.69322156 92.49360562 232.75390625 98.1640625 C232.97348244 99.29586441 232.97348244 99.29586441 233.19749451 100.45053101 C233.50403379 102.0381622 233.80721978 103.62644425 234.10717773 105.21533203 C234.55769542 107.59957309 235.01911895 109.98149533 235.48242188 112.36328125 C237.06608059 120.58098096 238.47978355 128.78406335 239.57348633 137.08300781 C239.97164651 139.80608617 240.5006568 142.44592143 241.125 145.125 C242 149 242 149 242 153 C231.75522248 152.368119 221.65797838 151.10066553 211.5 149.6875 C209.85372288 149.46126455 208.2074005 149.23535817 206.56103516 149.00976562 C203.25425821 148.55601319 199.94779489 148.10007509 196.64160156 147.64208984 C192.55078372 147.07553496 188.45916783 146.51512795 184.3671875 145.95703125 C133.49947279 139.00664307 133.49947279 139.00664307 121.17906189 136.86703491 C114.51302227 135.71107095 107.84279303 134.67235373 101.13671875 133.77734375 C99.50055175 133.55481919 97.86440309 133.33215965 96.22827148 133.109375 C92.95655688 132.66601873 89.68383556 132.23122748 86.41040039 131.80078125 C84.88295201 131.5952248 83.35552594 131.38950246 81.828125 131.18359375 C80.77917305 131.04932228 80.77917305 131.04932228 79.70903015 130.91233826 C68.00043497 129.31583696 60.5956046 123.48505615 51.78344727 116.01660156 C48.0276313 112.83567333 44.19820033 109.77049469 40.3125 106.75 C34.20708684 101.99641441 28.23546706 97.09371486 22.28466797 92.1484375 C16.73130035 87.55184416 11.04235315 83.17574211 5.24609375 78.890625 C4.50488281 78.26671875 3.76367188 77.6428125 3 77 C3 76.34 3 75.68 3 75 C2.071875 74.5359375 2.071875 74.5359375 1.125 74.0625 C-0.25 73.375 -1.625 72.6875 -3 72 C-3.26921639 57.14822921 -2.83392128 42.39114301 -2.0625 27.5625 C-2.01893372 26.71066132 -1.97536743 25.85882263 -1.93048096 24.98117065 C-1.80264116 22.50935336 -1.67005076 20.03784782 -1.53515625 17.56640625 C-1.47726173 16.4705571 -1.47726173 16.4705571 -1.41819763 15.35256958 C-1.12602886 10.20885276 -0.60214704 5.11683192 0 0 Z " fill="#2B2B2B" transform="translate(734,509)"/>
<path d="M0 0 C0.99 0.495 0.99 0.495 2 1 C2.49624953 8.61282525 2.93408367 16.22719188 3.30042458 23.84733963 C3.47238105 27.3872071 3.66325165 30.9237822 3.89990234 34.45996094 C5.62034664 60.50582139 5.62034664 60.50582139 0.64755249 67.1395874 C-1.39411947 69.32422337 -3.65124352 71.15561827 -6 73 C-7.41634805 74.67421204 -8.798415 76.37880413 -10.125 78.125 C-11.09373047 79.34316406 -11.09373047 79.34316406 -12.08203125 80.5859375 C-13.03142578 81.78089844 -13.03142578 81.78089844 -14 83 C-15.2705386 84.58356985 -16.54137782 86.16689855 -17.8125 87.75 C-20.57036624 91.19462901 -23.30337788 94.65756349 -26.02368164 98.13183594 C-31.26519762 104.82606011 -36.57686505 111.45130875 -42 118 C-42.76957031 119.04929687 -43.53914063 120.09859375 -44.33203125 121.1796875 C-47.48894716 124.51686654 -49.36283942 125.14882313 -53.8125 126.125 C-54.48756592 126.27767334 -55.16263184 126.43034668 -55.8581543 126.58764648 C-63.28021555 128.19963697 -70.8030989 129.37710923 -78.30981445 130.51806641 C-84.16805127 131.4274484 -89.77855088 132.68148137 -95.47924805 134.30639648 C-98.88379668 135.24318318 -102.27240076 135.88371659 -105.75 136.5 C-107.13032621 136.75065379 -108.51053196 137.00197175 -109.890625 137.25390625 C-110.57576172 137.37781738 -111.26089844 137.50172852 -111.96679688 137.62939453 C-121.04788333 139.28466461 -130.01356658 141.21076341 -138.94702148 143.51928711 C-143.62502861 144.70849561 -148.31040783 145.65939179 -153.0625 146.5 C-159.55319572 147.6492707 -165.83256301 149.25967321 -172.1875 151.0234375 C-177.53026349 152.39197323 -182.91116767 153.35050661 -188.34375 154.2890625 C-192.03326133 154.94829699 -192.03326133 154.94829699 -195.69140625 156.078125 C-199.71370192 157.19885909 -202.85732797 157.14535691 -207 157 C-208.90918722 153.64668398 -209.64757699 150.46582072 -210.375 146.6875 C-210.4994751 146.04506348 -210.6239502 145.40262695 -210.75219727 144.74072266 C-212.07318302 137.82065939 -213.25499923 130.87482595 -214.43994141 123.93041992 C-215.28959818 118.9762611 -216.17440187 114.03367064 -217.14453125 109.1015625 C-217.4221228 107.68834717 -217.4221228 107.68834717 -217.70532227 106.24658203 C-218.05808387 104.4677528 -218.41629846 102.68999272 -218.78100586 100.91357422 C-219.72046931 96.17413491 -220.18185674 91.83219346 -220 87 C-216.01915166 85.20779332 -212.30366271 84.45906081 -207.98828125 83.8515625 C-207.31173492 83.75434906 -206.6351886 83.65713562 -205.93814087 83.55697632 C-204.48632013 83.34905364 -203.0340937 83.14394761 -201.58151245 82.94140625 C-198.49731734 82.51132549 -195.41512079 82.06765176 -192.3327179 81.62493896 C-190.77071842 81.40078513 -189.20861459 81.17735725 -187.64640808 80.95465088 C-181.06943739 80.01627232 -174.50206104 79.02161964 -167.9375 78 C-160.9393754 76.91444588 -153.94025092 75.83659343 -146.9375 74.78125 C-146.24377289 74.67668488 -145.55004578 74.57211975 -144.83529663 74.46438599 C-143.4174398 74.25069157 -141.99958295 74.03699732 -140.58172607 73.82330322 C-124.01404223 71.33431052 -124.01404223 71.33431052 -107.47802734 68.64477539 C-101.21239201 67.60317233 -94.94937449 66.73057654 -88.64497375 65.96124268 C-84.49253662 65.44779981 -80.34550597 64.89616763 -76.19833374 64.34197998 C-74.1287174 64.07502757 -72.05685742 63.82486389 -69.98306274 63.59259033 C-56.02124247 62.28864352 -56.02124247 62.28864352 -44.8984375 54.58984375 C-43.55420503 52.75858675 -42.25228229 50.89532377 -41 49 C-39.53654499 47.19547709 -38.05919254 45.40205231 -36.5625 43.625 C-35.82902344 42.7175 -35.09554688 41.81 -34.33984375 40.875 C-31.80447373 37.75975403 -29.22356266 34.68751009 -26.625 31.625 C-26.16504639 31.08262695 -25.70509277 30.54025391 -25.23120117 29.98144531 C-23.34993903 27.76465269 -21.46692 25.54935553 -19.58398438 23.33398438 C-13.88290536 16.6235857 -8.23096081 9.88225068 -2.6796875 3.046875 C-1 1 -1 1 0 0 Z " fill="#7F7F7F" transform="translate(1184,505)"/>
<path d="M0 0 C0.33 0 0.66 0 1 0 C1.10195723 13.01539346 0.78264445 25.99661855 0.34375 39.00390625 C0.27624761 41.06468428 0.20899139 43.12547038 0.14196777 45.18626404 C-0.03314141 50.55044686 -0.21154316 55.91451503 -0.39068604 61.27856445 C-0.57368644 66.77613775 -0.75349649 72.27381535 -0.93359375 77.77148438 C-1.28598132 88.51442597 -1.64185552 99.25724889 -2 110 C-7.17598485 111.77445099 -12.32858679 113.42557236 -17.64282227 114.74584961 C-18.87182755 115.05304428 -20.10083282 115.36023895 -21.36708069 115.67674255 C-22.68350507 116.00201366 -23.9999474 116.32721218 -25.31640625 116.65234375 C-26.70018674 116.99688479 -28.0838878 117.34174495 -29.46751404 117.68690491 C-33.09534588 118.59101796 -36.72421437 119.49089774 -40.35333252 120.38983154 C-43.99724754 121.2931842 -47.64019122 122.20043535 -51.28320312 123.10742188 C-57.90947879 124.75668683 -64.53642054 126.40322375 -71.16482544 128.04391479 C-73.89515227 128.72456832 -76.6231027 129.41199552 -79.34957886 130.10769653 C-80.43242487 130.38256944 -80.43242487 130.38256944 -81.53714657 130.66299534 C-82.92256412 131.01500039 -84.30738834 131.36935216 -85.69149876 131.72646236 C-88.96125546 132.55509314 -92.13460334 133.24071575 -95.5 133.5 C-101.18861026 133.94852504 -106.65608818 135.5865146 -112.16015625 137.015625 C-115.24503451 137.80645849 -118.3225824 138.5296294 -121.4375 139.1875 C-124.79917579 139.62178528 -124.79917579 139.62178528 -126 141 C-128.33333333 141.33333333 -130.66666667 141.66666667 -133 142 C-133.33 142.33 -133.66 142.66 -134 143 C-135.66617115 143.04063832 -137.33388095 143.042721 -139 143 C-139.11593506 142.19256348 -139.23187012 141.38512695 -139.35131836 140.55322266 C-139.87647154 136.90995609 -140.40691704 133.26747959 -140.9375 129.625 C-141.11990234 128.35398437 -141.30230469 127.08296875 -141.49023438 125.7734375 C-141.66748047 124.56171875 -141.84472656 123.35 -142.02734375 122.1015625 C-142.18968506 120.98088379 -142.35202637 119.86020508 -142.51928711 118.70556641 C-142.86037534 116.04270747 -142.86037534 116.04270747 -144 114 C-144.26535389 112.39245965 -144.48631804 110.77746295 -144.68359375 109.16015625 C-144.80669922 108.17853516 -144.92980469 107.19691406 -145.05664062 106.18554688 C-145.24516602 104.63963867 -145.24516602 104.63963867 -145.4375 103.0625 C-146.27625978 96.20597161 -147.22028977 89.43360806 -148.61743164 82.66577148 C-149.082856 79.4226518 -149.05809551 76.27170751 -149 73 C-148.05084717 72.78907715 -147.10169434 72.5781543 -146.1237793 72.36083984 C-145.4891275 72.21980331 -144.85447571 72.07876678 -144.20059204 71.93345642 C-142.75892607 71.61309195 -141.31725518 71.29274964 -139.87557983 70.97242737 C-135.82050374 70.07140383 -131.76551979 69.16996873 -127.71069336 68.26782227 C-120.34794863 66.63008741 -112.98496504 64.9938885 -105.6171875 63.37890625 C-93.13497881 60.63730277 -80.70730065 57.72945897 -68.2956543 54.68432617 C-56.65896661 51.85926595 -44.95439755 49.39289833 -33.22509766 46.98614502 C-31.31982263 46.58782242 -29.41932446 46.16686348 -27.51904297 45.74536133 C-25.27218277 45.26945844 -23.0092799 44.86095546 -20.73486328 44.54174805 C-17.77025051 44.02542807 -15.58972834 43.53645864 -13 42 C-10.74096514 38.31657197 -9.97044032 34.51698463 -9.125 30.3125 C-8.58519564 28.0477324 -8.04352573 25.78340864 -7.5 23.51953125 C-7.24992187 22.4104541 -6.99984375 21.30137695 -6.7421875 20.15869141 C-5.73473111 15.87103654 -4.47312001 11.69080906 -3.125 7.5 C-2.73570312 6.2521875 -2.34640625 5.004375 -1.9453125 3.71875 C-1 1 -1 1 0 0 Z " fill="#8E8E8E" transform="translate(1175,651)"/>
<path d="M0 0 C8.83201755 2.67027535 17.60825184 5.4830961 26.35864258 8.40942383 C28.32754182 9.06752772 30.29750483 9.72237331 32.26757812 10.37695312 C33.5495434 10.80449494 34.83144669 11.23222267 36.11328125 11.66015625 C37.24548096 12.03793213 38.37768066 12.41570801 39.54418945 12.80493164 C41.96939521 13.64360223 44.36578053 14.50743275 46.76318359 15.41796875 C51.69367318 17.2819861 56.68283771 18.96430298 61.67578125 20.65234375 C62.68158737 20.99374893 63.68739349 21.33515411 64.72367859 21.68690491 C67.91954515 22.77164176 71.11595498 23.85476422 74.3125 24.9375 C78.51739743 26.36189903 82.72173983 27.78792052 86.92578125 29.21484375 C87.8719783 29.53476791 88.81817535 29.85469208 89.79304504 30.18431091 C96.22826777 32.3686058 102.62204787 34.65385973 109 37 C112.23505114 59.84618881 112.23505114 59.84618881 112.7890625 68.85546875 C112.93801949 71.18379861 112.93801949 71.18379861 114 74 C114.36663537 76.89584653 114.69964152 79.78481686 115 82.6875 C115.16612049 84.25396427 115.33278357 85.82037109 115.5 87.38671875 C115.5812915 88.15741699 115.66258301 88.92811523 115.74633789 89.72216797 C115.9887365 91.89885618 116.26896125 94.06744844 116.55859375 96.23828125 C116.92714393 99.37911158 117.10632197 102.34481842 117.0625 105.5 C117.05347656 106.3559375 117.04445313 107.211875 117.03515625 108.09375 C117.02355469 108.7228125 117.01195312 109.351875 117 110 C112.76601256 109.41532518 109.11021167 108.4132176 105.1484375 106.8203125 C104.04886719 106.38589844 102.94929687 105.95148438 101.81640625 105.50390625 C99.54502754 104.59380786 97.27418226 103.68237688 95.00390625 102.76953125 C89.82229155 100.72463325 84.77049881 98.8513608 79.3359375 97.60546875 C70.7148085 95.58899647 62.52398249 92.29430249 54.25 89.1875 C52.60959128 88.5768926 50.96896716 87.96686355 49.328125 87.35742188 C43.02517949 85.01319232 36.7271756 82.65619605 30.43896484 80.27270508 C29.71723083 79.99989212 28.99549683 79.72707916 28.25189209 79.44599915 C26.90902791 78.93804301 25.56688337 78.42817812 24.22564697 77.91593933 C21.46026153 76.87048592 18.72325015 75.9234347 15.87255859 75.13476562 C13.18328476 74.32994296 11.27623984 73.63300429 9 72 C8.21913147 69.81355286 8.21913147 69.81355286 7.84790039 67.14770508 C7.70184357 66.15928619 7.55578674 65.17086731 7.40530396 64.15249634 C7.27155365 63.11217255 7.13780334 62.07184875 7 61 C6.85891815 60.00036224 6.7178363 59.00072449 6.57247925 57.97079468 C6.12804869 54.757893 5.71507773 51.54213263 5.30859375 48.32421875 C5.158423 47.15542679 5.00825226 45.98663483 4.85353088 44.78242493 C4.37880888 41.08445783 3.90793048 37.38601526 3.4375 33.6875 C2.96288079 29.97121476 2.48742974 26.25503918 2.01075745 22.53901672 C1.71559089 20.23644268 1.42169945 17.93370472 1.1292572 15.63078308 C0.60185045 11.50528363 0.07275123 7.40660483 -0.65991211 3.31176758 C-0.77214111 2.54888428 -0.88437012 1.78600098 -1 1 C-0.67 0.67 -0.34 0.34 0 0 Z " fill="#2B2B2B" transform="translate(734,681)"/>
<path d="M0 0 C1.47847419 0.91908363 2.95769577 1.83696563 4.4375 2.75390625 C5.2521875 3.26711426 6.066875 3.78032227 6.90625 4.30908203 C11.63658936 7.25110164 16.44184364 10.0670886 21.23937988 12.8977356 C23.00957007 13.94315177 24.77798495 14.99151039 26.54589844 16.04077148 C33.09010981 19.92336668 39.65368928 23.76911747 46.25 27.5625 C54.72076596 32.43606596 63.10054113 37.45657638 71.46875 42.50390625 C76.20933109 45.36116242 80.95347853 48.2061965 85.75 50.96875 C86.90314697 51.6347522 86.90314697 51.6347522 88.07958984 52.31420898 C89.46170653 53.10912041 90.84712548 53.89833722 92.23681641 54.67993164 C97.85376159 57.91493319 102.99851159 61.56026738 106.625 67 C106.54496848 70.76148134 106.18695471 72.43804529 103.5 75.125 C98.82867118 78.1715188 94.38945384 80.75999081 89.1875 82.75 C83.94834789 84.77601653 79.00469162 87.25641677 74.00219727 89.79589844 C69.08281049 92.28733534 64.12399467 94.67275331 59.125 97 C52.91768488 99.8939653 46.77975737 102.9019045 40.66650391 105.98901367 C34.95320958 108.86264363 29.17966458 111.59826512 23.3828125 114.29882812 C22.71765625 114.60884766 22.0525 114.91886719 21.3671875 115.23828125 C20.73393555 115.53299316 20.10068359 115.82770508 19.44824219 116.13134766 C17.70142415 116.96358903 15.97878759 117.84602332 14.2578125 118.73046875 C11.625 120 11.625 120 9.625 120 C11.14918618 115.7546228 13.29119563 112.04741686 15.6875 108.25 C16.31495117 107.24235596 16.31495117 107.24235596 16.95507812 106.21435547 C19.84605598 101.63359498 22.88118297 97.17368242 25.99609375 92.7421875 C26.76636189 91.63911415 27.53646187 90.53592336 28.30639648 89.43261719 C29.82319792 87.26007297 31.35960156 85.10702634 32.91040039 82.95800781 C37.25628985 76.74804483 39.94957562 71.61329923 40.625 64 C36.81284133 63.10621658 33.3090048 62.88844216 29.39770508 62.91821289 C27.5460247 62.92800926 27.5460247 62.92800926 25.65693665 62.93800354 C25.00300745 62.94374453 24.34907825 62.94948551 23.67533302 62.95540047 C21.62027394 62.97286237 19.56529329 62.98311126 17.51017761 62.99131775 C11.67020262 63.01571833 5.83033442 63.05149806 -0.00952148 63.09594727 C-3.58789186 63.12268246 -7.16620224 63.13975328 -10.7446537 63.15081596 C-12.10786483 63.15703219 -13.47106403 63.16704553 -14.83421898 63.18089485 C-16.73470587 63.20004546 -18.63531252 63.20593952 -20.53588867 63.21118164 C-21.61778976 63.21863907 -22.69969086 63.2260965 -23.81437683 63.23377991 C-26.375 63 -26.375 63 -28.375 61 C-28.75086816 58.19654783 -29.01026139 55.46978541 -29.19140625 52.65234375 C-29.25279282 51.8076503 -29.31417938 50.96295685 -29.37742615 50.09266663 C-29.57272381 47.37480932 -29.75515776 44.65625404 -29.9375 41.9375 C-30.06363493 40.1633531 -30.19057954 38.38926356 -30.31835938 36.61523438 C-30.56901108 33.11124899 -30.80554776 29.6067197 -31.03173828 26.10107422 C-31.24891006 22.75497594 -31.50402646 19.41538546 -31.79248047 16.07470703 C-31.85330307 15.30212051 -31.91412567 14.529534 -31.97679138 13.73353577 C-32.09012274 12.2941536 -32.21576066 10.85566291 -32.3563385 9.41868591 C-32.67994249 5.02384828 -32.15179277 2.45424518 -29.375 -1 C-26.5546875 -2.14453125 -26.5546875 -2.14453125 -23.25 -2.8125 C-22.17492187 -3.04582031 -21.09984375 -3.27914063 -19.9921875 -3.51953125 C-12.06355189 -4.57268695 -6.88557588 -4.52915146 0 0 Z " fill="#3B3B3B" transform="translate(931.375,267)"/>
<path d="M0 0 C0.99 0.99 0.99 0.99 2 2 C4.65867866 2.58356219 7.25875192 3.05816611 9.9453125 3.46484375 C10.74623322 3.59189194 11.54715393 3.71894012 12.37234497 3.84983826 C21.18703831 5.22733859 30.02920469 6.40525111 38.875 7.5625 C48.94652278 8.88495076 58.99479011 10.22924251 69 12 C69 12.66 69 13.32 69 14 C67.73446289 14.51216064 67.73446289 14.51216064 66.44335938 15.03466797 C48.58955849 22.26385891 30.76073808 29.54427542 13 37 C13 37.66 13 38.32 13 39 C14.65990469 40.41859669 14.65990469 40.41859669 16.83984375 41.828125 C17.65646484 42.38113281 18.47308594 42.93414063 19.31445312 43.50390625 C20.18005859 44.08011719 21.04566406 44.65632812 21.9375 45.25 C22.76830078 45.81074219 23.59910156 46.37148438 24.45507812 46.94921875 C27.83144707 49.22465494 31.20870642 51.49307984 34.63720703 53.68945312 C35.45946777 54.21990234 36.28172852 54.75035156 37.12890625 55.296875 C37.87342041 55.76963867 38.61793457 56.24240234 39.38500977 56.72949219 C39.91795654 57.14875977 40.45090332 57.56802734 41 58 C41 58.66 41 59.32 41 60 C41.58910156 60.10441406 42.17820312 60.20882812 42.78515625 60.31640625 C45.32620077 61.10067925 46.51628647 62.12277405 48.4375 63.9375 C51.14756803 66.37305683 53.45967295 67.92717362 57 69 C57 69.66 57 70.32 57 71 C57.99 71.37125 57.99 71.37125 59 71.75 C62 73 62 73 65.41015625 74.9140625 C70.81756391 77.63695031 76.52390381 78.54528033 82.4375 79.625 C84.60431058 80.02612018 86.76978149 80.43457088 88.93359375 80.8515625 C90.3575647 81.11187256 90.3575647 81.11187256 91.81030273 81.37744141 C92.53290283 81.58288574 93.25550293 81.78833008 94 82 C94.33 82.66 94.66 83.32 95 84 C88.87286235 84.05088985 82.74831558 84.0578398 76.62109375 84.01171875 C71.74744374 83.97877608 66.90433713 84.06897476 62.03515625 84.26953125 C40.45847835 84.79279305 22.4489306 78.19388465 2.49121094 70.671875 C-3.09791267 68.57312603 -8.75404706 66.70058426 -14.4375 64.875 C-18.84820842 63.4488725 -23.17838021 61.9476733 -27.46484375 60.1796875 C-34.88655714 57.16696231 -42.52126042 54.75570352 -50.125 52.25 C-51.66936421 51.73856313 -53.2136358 51.22684648 -54.7578125 50.71484375 C-58.50414912 49.47333686 -62.25171587 48.23561399 -66 47 C-66 43.44298558 -65.49623331 43.05204244 -63.1875 40.5 C-62.55457031 39.80003906 -61.92164063 39.10007812 -61.26953125 38.37890625 C-58.22275272 35.18529502 -55.07161836 32.1005276 -51.91992188 29.01123047 C-49.41246643 26.52203319 -47.16092443 24.05639746 -45.1875 21.125 C-43.21105888 18.30151269 -41.31515728 16.48035908 -38.60546875 14.390625 C-36.00956845 12.14210795 -33.94487352 9.44884616 -31.80859375 6.76953125 C-27.87122543 2.91720329 -22.49577428 2.3389249 -17.25 1.375 C-16.54278809 1.24456299 -15.83557617 1.11412598 -15.10693359 0.97973633 C-9.99013531 0.08080764 -5.20288308 -0.4485244 0 0 Z " fill="#4C4C4C" transform="translate(801,635)"/>
<path d="M0 0 C2.68323539 2.68323539 2.28012745 4.06949798 2.33813477 7.82324219 C2.36057755 9.0450116 2.38302032 10.26678101 2.40614319 11.52557373 C2.41916063 12.86599582 2.43088276 14.20643102 2.44140625 15.546875 C2.45176061 16.55891872 2.45176061 16.55891872 2.46232414 17.59140778 C2.49818476 21.16445659 2.52170803 24.73734705 2.53540039 28.31054688 C2.55192479 31.99437212 2.61030065 35.67626936 2.67854404 39.35944748 C2.72342647 42.19745234 2.73690191 45.03499988 2.74201775 47.87332916 C2.75371365 49.88868771 2.79876758 51.90376377 2.84437561 53.91864014 C2.80145407 62.85813488 2.80145407 62.85813488 0.5166626 66.1133728 C-1.25323788 67.65834366 -2.96816551 68.82952026 -5 70 C-6.20058137 70.84937189 -7.39660769 71.70525595 -8.5859375 72.5703125 C-9.84641711 73.42563202 -11.10954722 74.27705567 -12.375 75.125 C-13.79100702 76.08629394 -15.20634972 77.04856703 -16.62109375 78.01171875 C-17.34409668 78.50333496 -18.06709961 78.99495117 -18.81201172 79.50146484 C-22.37904761 81.94449835 -25.90913294 84.43907444 -29.4375 86.9375 C-30.13238525 87.42935791 -30.82727051 87.92121582 -31.54321289 88.42797852 C-32.9628869 89.43320642 -34.38240062 90.43866074 -35.80175781 91.44433594 C-38.10270137 93.07268027 -40.40643507 94.69700922 -42.7109375 96.3203125 C-43.48123291 96.86308838 -44.25152832 97.40586426 -45.04516602 97.96508789 C-46.5193547 99.00370279 -47.993788 100.0419706 -49.46850586 101.07983398 C-50.13503174 101.54977783 -50.80155762 102.01972168 -51.48828125 102.50390625 C-52.10654785 102.93848145 -52.72481445 103.37305664 -53.36181641 103.82080078 C-54.70276613 104.78604477 -56.00429966 105.80583499 -57.29296875 106.83984375 C-59 108 -59 108 -62 108 C-62.09276481 99.61146315 -62.16379728 91.22314135 -62.20724869 82.83421803 C-62.22810547 78.9386919 -62.2563873 75.04351723 -62.30175781 71.14819336 C-62.34528508 67.38749942 -62.36915148 63.6271431 -62.37950897 59.86621666 C-62.38688812 58.43288548 -62.4012982 56.99957235 -62.42292023 55.56638527 C-62.45203957 53.55591546 -62.45363462 51.54510445 -62.45410156 49.53442383 C-62.46742523 47.81900139 -62.46742523 47.81900139 -62.48101807 46.06892395 C-61.78205785 41.60951608 -59.54884987 39.19351527 -56.03979492 36.48950195 C-55.36021729 36.07659912 -54.68063965 35.66369629 -53.98046875 35.23828125 C-53.21387939 34.76487305 -52.44729004 34.29146484 -51.6574707 33.80371094 C-50.84238037 33.31161133 -50.02729004 32.81951172 -49.1875 32.3125 C-47.45481886 31.2423579 -45.72305642 30.17072699 -43.9921875 29.09765625 C-43.13850586 28.57059082 -42.28482422 28.04352539 -41.40527344 27.50048828 C-38.1648696 25.47901833 -34.98119256 23.38160834 -31.8125 21.25 C-31.24418457 20.86835693 -30.67586914 20.48671387 -30.09033203 20.09350586 C-28.82747491 19.24478612 -27.5649652 18.39554933 -26.30273438 17.54589844 C-21.78657959 14.51406085 -17.25720411 11.50198407 -12.73031616 8.48620605 C-10.06070348 6.70753893 -7.39170724 4.92794734 -4.72265625 3.1484375 C-3.1484375 2.09895833 -1.57421875 1.04947917 0 0 Z " fill="#949494" transform="translate(1189,836)"/>
<path d="M0 0 C0.66 0.33 1.32 0.66 2 1 C2.49624953 8.61282525 2.93408367 16.22719188 3.30042458 23.84733963 C3.47238105 27.3872071 3.66325165 30.9237822 3.89990234 34.45996094 C5.62034664 60.50582139 5.62034664 60.50582139 0.64755249 67.1395874 C-1.39411947 69.32422337 -3.65124352 71.15561827 -6 73 C-7.41634805 74.67421204 -8.798415 76.37880413 -10.125 78.125 C-10.77082031 78.93710937 -11.41664062 79.74921875 -12.08203125 80.5859375 C-12.71496094 81.38257813 -13.34789062 82.17921875 -14 83 C-15.2705386 84.58356985 -16.54137782 86.16689855 -17.8125 87.75 C-21.04817558 91.79142224 -24.24596051 95.86125915 -27.4375 99.9375 C-31.56965027 105.21253977 -35.76492984 110.42698965 -40.02734375 115.59765625 C-41.43013732 117.30600882 -42.79360879 119.04698114 -44.12890625 120.80859375 C-44.74636719 121.53175781 -45.36382813 122.25492188 -46 123 C-46.66 123 -47.32 123 -48 123 C-48.71942238 111.79155242 -49.34175178 100.58067618 -49.88238525 89.36218262 C-49.99285252 87.14355044 -50.11452142 84.9258486 -50.23974609 82.70800781 C-50.43850039 78.93028635 -50.57364245 75.15610561 -50.6875 71.375 C-50.75517578 70.26479492 -50.82285156 69.15458984 -50.89257812 68.01074219 C-51.00641859 61.629788 -50.04389498 58.36278769 -45.73046875 53.55859375 C-44.16892998 52.02336009 -42.5938005 50.50171425 -41 49 C-39.52334217 47.24441791 -38.06021312 45.47712289 -36.625 43.6875 C-33.33576152 39.62734625 -30.00502133 35.60944728 -26.625 31.625 C-26.16512695 31.08270752 -25.70525391 30.54041504 -25.23144531 29.98168945 C-23.35008017 27.76483383 -21.46699428 25.54944292 -19.58398438 23.33398438 C-13.88290536 16.6235857 -8.23096081 9.88225068 -2.6796875 3.046875 C-1 1 -1 1 0 0 Z " fill="#939393" transform="translate(1184,505)"/>
<path d="M0 0 C3.62278586 3.57676136 7.12168675 7.24747944 10.5625 11 C11.62234353 12.15239185 12.68224093 13.30473417 13.7421875 14.45703125 C14.28069336 15.04307129 14.81919922 15.62911133 15.37402344 16.23291016 C16.95731959 17.95361549 18.54426184 19.67086438 20.1328125 21.38671875 C25.36670763 27.04095692 30.5712401 32.71708364 35.70703125 38.4609375 C37.39926465 40.3347905 39.10300248 42.19221423 40.82421875 44.0390625 C41.31011475 44.56234131 41.79601074 45.08562012 42.29663086 45.62475586 C43.668809 47.10019887 45.04521149 48.57170994 46.421875 50.04296875 C49.16286562 53.18680193 51.57569203 56.60596884 54 60 C35.19 63.63 16.38 67.26 -3 71 C-3 57.27422739 -2.96497234 43.76864606 -2.20043945 30.09667969 C-2.05972018 27.57518964 -1.9286549 25.05332239 -1.79882812 22.53125 C-1.7114824 20.88799178 -1.62361227 19.24476133 -1.53515625 17.6015625 C-1.49656998 16.86708893 -1.4579837 16.13261536 -1.41822815 15.37588501 C-1.12655159 10.22419415 -0.60340586 5.12468716 0 0 Z " fill="#3B3B3B" transform="translate(734,509)"/>
<path d="M0 0 C1.47847419 0.91908363 2.95769577 1.83696563 4.4375 2.75390625 C5.2521875 3.26711426 6.066875 3.78032227 6.90625 4.30908203 C11.63658936 7.25110164 16.44184364 10.0670886 21.23937988 12.8977356 C23.00957007 13.94315177 24.77798495 14.99151039 26.54589844 16.04077148 C33.09010981 19.92336668 39.65368928 23.76911747 46.25 27.5625 C54.72076596 32.43606596 63.10054113 37.45657638 71.46875 42.50390625 C76.20933109 45.36116242 80.95347853 48.2061965 85.75 50.96875 C86.90314697 51.6347522 86.90314697 51.6347522 88.07958984 52.31420898 C89.46170653 53.10912041 90.84712548 53.89833722 92.23681641 54.67993164 C97.85376159 57.91493319 102.99851159 61.56026738 106.625 67 C106.625 68.32 106.625 69.64 106.625 71 C104.15 71.495 104.15 71.495 101.625 72 C101.25375 71.071875 101.25375 71.071875 100.875 70.125 C98.74244436 66.49965541 94.80142327 65.64244213 91 64.1875 C85.70568391 62.08670306 80.69099692 59.59494679 75.625 57 C73.08589117 55.72404088 70.54277458 54.45613471 68 53.1875 C66.63274685 52.50403756 65.26556043 51.82044162 63.8984375 51.13671875 C63.20331055 50.78915527 62.50818359 50.4415918 61.79199219 50.08349609 C55.73632812 47.05566406 49.68066406 44.02783203 43.625 41 C43.625 40.34 43.625 39.68 43.625 39 C42.78195312 38.79503906 41.93890625 38.59007812 41.0703125 38.37890625 C39.97460938 38.10949219 38.87890625 37.84007812 37.75 37.5625 C36.65945313 37.29566406 35.56890625 37.02882813 34.4453125 36.75390625 C31.625 36 31.625 36 29.625 35 C29.625 34.34 29.625 33.68 29.625 33 C28.69494141 32.814375 28.69494141 32.814375 27.74609375 32.625 C20.22404286 30.87313953 14.09993071 27.76405795 7.41015625 24.06640625 C-0.59090929 19.64955621 -8.47113403 16.0547383 -17.375 14 C-17.705 13.34 -18.035 12.68 -18.375 12 C-19.365 12 -20.355 12 -21.375 12 C-21.436875 11.236875 -21.49875 10.47375 -21.5625 9.6875 C-22.16362165 6.83164215 -22.16362165 6.83164215 -24.625 5.0625 C-27.35807928 3.68778462 -27.35807928 3.68778462 -30.1875 4.8125 C-30.909375 5.204375 -31.63125 5.59625 -32.375 6 C-30.75 0.25 -30.75 0.25 -27.375 -2 C-24.9921875 -2.6328125 -24.9921875 -2.6328125 -22.25 -3.125 C-21.36054687 -3.29257812 -20.47109375 -3.46015625 -19.5546875 -3.6328125 C-11.80758255 -4.52744133 -6.71964509 -4.42000653 0 0 Z " fill="#3E3E3E" transform="translate(931.375,267)"/>
<path d="M0 0 C7.64000708 1.34495958 14.04310881 4.05604528 21 7.4375 C22.57201172 8.17323242 22.57201172 8.17323242 24.17578125 8.92382812 C25.16964844 9.40142578 26.16351562 9.87902344 27.1875 10.37109375 C28.53908203 11.0196936 28.53908203 11.0196936 29.91796875 11.68139648 C32 13 32 13 33 16 C37.95 16.99 37.95 16.99 43 18 C43 18.66 43 19.32 43 20 C43.55558594 20.11601562 44.11117187 20.23203125 44.68359375 20.3515625 C47.32682622 21.0914893 49.60571275 22.15216471 52.0625 23.375 C52.91972656 23.79523438 53.77695312 24.21546875 54.66015625 24.6484375 C57 26 57 26 58.453125 27.49609375 C60.60663766 29.58978661 62.94061743 30.48466184 65.6875 31.6875 C71.66408705 34.36458266 77.51962495 37.22295648 83.35424805 40.19604492 C86.47514182 41.7765408 89.59705198 43.28290922 92.8203125 44.64453125 C95.74981461 45.89334849 98.27648749 47.36589249 101 49 C102.11375 49.474375 103.2275 49.94875 104.375 50.4375 C107.42498765 51.75214985 110.24034069 53.20194073 113.09375 54.89453125 C114.51230019 55.71717409 115.95396449 56.5002119 117.40625 57.26171875 C118.2209375 57.69097656 119.035625 58.12023437 119.875 58.5625 C120.63554688 58.95566406 121.39609375 59.34882813 122.1796875 59.75390625 C124 61 124 61 125 64 C120.08002374 63.51764939 117.15915887 62.55221113 113 60 C110.4228617 58.71270109 107.80409273 57.51717631 105.1875 56.3125 C97.40489328 52.68963482 89.71709771 48.9035831 82.05419922 45.03515625 C78.37417061 43.18070875 74.68655537 41.34142804 71 39.5 C69.64580222 38.82297889 68.29163253 38.14590159 66.9375 37.46875 C65.968125 36.9840625 64.99875 36.499375 64 36 C64 35.34 64 34.68 64 34 C63.15695312 33.79503906 62.31390625 33.59007812 61.4453125 33.37890625 C60.34960938 33.10949219 59.25390625 32.84007812 58.125 32.5625 C57.03445313 32.29566406 55.94390625 32.02882813 54.8203125 31.75390625 C52 31 52 31 50 30 C50 29.34 50 28.68 50 28 C49.37996094 27.87625 48.75992188 27.7525 48.12109375 27.625 C39.86673499 25.70258748 33.09255749 22.07089587 25.76855469 17.97363281 C21.91365022 15.85141318 17.95170263 13.93400976 14 12 C14 11.34 14 10.68 14 10 C13.40832031 9.81824219 12.81664062 9.63648438 12.20703125 9.44921875 C3.20689655 6.5862069 3.20689655 6.5862069 0 4 C0 2.68 0 1.36 0 0 Z " fill="#737372" transform="translate(911,272)"/>
<path d="M0 0 C0.99 0.33 1.98 0.66 3 1 C3 1.66 3 2.32 3 3 C3.99 3.33 4.98 3.66 6 4 C6 5.32 6 6.64 6 8 C5.34 8 4.68 8 4 8 C4.13662552 8.60984741 4.27325104 9.21969482 4.41401672 9.84802246 C5.68661187 15.80713733 6.39583998 21.57489725 6.66796875 27.65625 C6.71190262 28.52519897 6.75583649 29.39414795 6.80110168 30.28942871 C6.89111666 32.10423513 6.97748655 33.91922583 7.06030273 35.734375 C7.1884847 38.52141015 7.33075327 41.3074843 7.47460938 44.09375 C7.56072349 45.86454328 7.64603935 47.6353756 7.73046875 49.40625 C7.77310349 50.23950806 7.81573822 51.07276611 7.85966492 51.93127441 C8.11540819 57.76918363 8.11540819 57.76918363 7 60 C4.125 60.125 4.125 60.125 1 60 C-1.97712471 57.02287529 -1.5603118 53.59600704 -1.81640625 49.58203125 C-1.87779282 48.73259445 -1.93917938 47.88315765 -2.00242615 47.00798035 C-2.19773625 44.27668265 -2.3802572 41.5446976 -2.5625 38.8125 C-2.68861833 37.0214254 -2.81556254 35.23040875 -2.94335938 33.43945312 C-3.30780758 28.29377043 -3.65614051 23.14709445 -4 18 C-4.10399897 16.45100878 -4.20800266 14.90201788 -4.31201172 13.35302734 C-4.54316716 9.90213831 -4.77230478 6.45111928 -5 3 C-2.6875 1.4375 -2.6875 1.4375 0 0 Z " fill="#262626" transform="translate(904,270)"/>
<path d="M0 0 C2.48099734 0.08649451 4.93344928 0.11565054 7.4140625 0.09765625 C8.50852188 0.09553383 8.50852188 0.09553383 9.62509155 0.09336853 C11.95843585 0.08776531 14.29168464 0.07521235 16.625 0.0625 C18.20572778 0.05748541 19.78645707 0.05292243 21.3671875 0.04882812 C25.24482854 0.03779484 29.12239807 0.02052811 33 0 C33 0.33 33 0.66 33 1 C25.7381606 1.93454051 18.5651884 2.20045543 11.25 2.375 C-1.88047734 2.75518858 -14.91480634 3.71803498 -27.99975586 4.83886719 C-39.92470723 5.85703536 -51.85141943 6.66925945 -63.80004883 7.35327148 C-67.20146673 7.55175265 -70.60082333 7.76647292 -74 8 C-74.85255371 8.05639648 -75.70510742 8.11279297 -76.58349609 8.17089844 C-78.95168002 8.34663489 -78.95168002 8.34663489 -82 9 C-82.99 10.485 -82.99 10.485 -84 12 C-83.06558465 13.27310312 -82.12732889 14.543388 -81.1875 15.8125 C-80.66542969 16.52019531 -80.14335938 17.22789062 -79.60546875 17.95703125 C-78.06893533 20.00874525 -78.06893533 20.00874525 -76.30078125 21.63671875 C-75 23 -75 23 -75 25 C-74.34 25 -73.68 25 -73 25 C-70 29.38461538 -70 29.38461538 -70 32 C-69.34 32 -68.68 32 -68 32 C-65 36.38461538 -65 36.38461538 -65 39 C-64.34 39 -63.68 39 -63 39 C-61.3633245 41.26298453 -59.85434489 43.51267112 -58.375 45.875 C-57.95476563 46.52597656 -57.53453125 47.17695313 -57.1015625 47.84765625 C-54 52.73161019 -54 52.73161019 -54 55 C-53.34 55 -52.68 55 -52 55 C-50.7109375 56.53125 -50.7109375 56.53125 -49.375 58.5 C-48.92898438 59.1496875 -48.48296875 59.799375 -48.0234375 60.46875 C-47.68570313 60.9740625 -47.34796875 61.479375 -47 62 C-47.33 62.66 -47.66 63.32 -48 64 C-50.60158864 61.5284908 -52.85869608 58.87968458 -55 56 C-55 55.34 -55 54.68 -55 54 C-55.66 54 -56.32 54 -57 54 C-57.268125 53.46632813 -57.53625 52.93265625 -57.8125 52.3828125 C-60.69715709 46.89816842 -64.05851566 42.20537636 -68.03515625 37.45703125 C-70.20648188 34.74179503 -72.07342028 31.89349097 -74 29 C-75.69342703 26.72191753 -77.43792949 24.48513413 -79.1875 22.25 C-83.86830357 16.26339286 -83.86830357 16.26339286 -85 14 C-86.65 14.33 -88.3 14.66 -90 15 C-90.36668317 10.47757421 -90.36668317 10.47757421 -88.79394531 8.42921448 C-75.05463774 -2.51672527 -46.48998641 -0.12183863 -30 -0.4375 C-27.96490168 -0.49145978 -25.93000428 -0.55054218 -23.89508057 -0.61070156 C-18.34091284 -0.773842 -12.7860392 -0.92007183 -7.23046875 -1.02514648 C-6.26520264 -1.04479965 -5.29993652 -1.06445282 -4.30541992 -1.08470154 C-2 -1 -2 -1 0 0 Z " fill="#ADADAD" transform="translate(905,329)"/>
<path d="M0 0 C3.00811698 0.31418111 3.9098127 0.89612029 5.9296875 3.22265625 C6.89261719 4.62837891 6.89261719 4.62837891 7.875 6.0625 C8.91527344 7.55523437 8.91527344 7.55523437 9.9765625 9.078125 C10.64429688 10.04234375 11.31203125 11.0065625 12 12 C13.51123241 14.02877775 15.04228885 16.04064276 16.578125 18.05078125 C17.72090374 19.61739277 18.80759044 21.22484551 19.875 22.84375 C22.77462425 27.15054484 25.98005616 31.2002333 29.171875 35.29296875 C31 38 31 38 31 41 C31.66 41 32.32 41 33 41 C34.2890625 42.4609375 34.2890625 42.4609375 35.625 44.375 C36.07101562 45.00148438 36.51703125 45.62796875 36.9765625 46.2734375 C38 48 38 48 38 50 C38.99 50.33 39.98 50.66 41 51 C41.99953694 52.6783115 42.99124854 54.3625916 43.91552734 56.08349609 C45.59510738 59.05168684 47.70011654 61.64124974 49.8125 64.3125 C54.81259882 70.69595949 59.50159257 77.25238886 64 84 C65.485 84.495 65.485 84.495 67 85 C68.53515625 86.99609375 68.53515625 86.99609375 70.0625 89.4375 C71.61468524 91.89808881 72.93883462 93.93883462 75 96 C76.31881375 98.94793662 77.29981122 101.84915051 78 105 C76.0625 104.1875 76.0625 104.1875 74 103 C73.67 102.01 73.34 101.02 73 100 C72.01 100 71.02 100 70 100 C69.443125 98.824375 68.88625 97.64875 68.3125 96.4375 C66.8498199 93.49124438 65.26026788 90.83737025 63.3125 88.1875 C61 85 61 85 60 82 C59.319375 81.319375 58.63875 80.63875 57.9375 79.9375 C57.298125 79.298125 56.65875 78.65875 56 78 C56 77.34 56 76.68 56 76 C55.01 75.67 54.02 75.34 53 75 C51.39453125 73.00390625 51.39453125 73.00390625 49.8125 70.5625 C49.28269531 69.75941406 48.75289062 68.95632813 48.20703125 68.12890625 C47 66 47 66 47 64 C46.34 64 45.68 64 45 64 C43.66796875 62.2421875 43.66796875 62.2421875 42.1875 59.875 C40.33852041 56.9952934 38.49116298 54.27448042 36.25 51.6875 C34 49 34 49 32.9375 46.8125 C32.08757321 44.8338805 32.08757321 44.8338805 30 43.5625 C27.54082269 41.64126772 27.06154524 39.88133709 26 37 C25.34 36.67 24.68 36.34 24 36 C23.67 36.66 23.34 37.32 23 38 C22.46826172 37.23042969 22.46826172 37.23042969 21.92578125 36.4453125 C17.24208187 29.70895068 12.44471118 23.05854154 7.62036133 16.42236328 C6.07201104 14.28733067 4.53274365 12.14625776 3 10 C2.57348145 9.40687012 2.14696289 8.81374023 1.70751953 8.20263672 C-1.0296461 4.28163798 -1.0296461 4.28163798 -0.75 1.625 C-0.5025 1.08875 -0.255 0.5525 0 0 Z " fill="#828282" transform="translate(817,342)"/>
<path d="M0 0 C4.81308337 -0.51535883 8.1838406 1.30461377 12.3125 3.5 C13.73426503 4.23328618 15.15614344 4.96635256 16.578125 5.69921875 C17.66963867 6.26842041 17.66963867 6.26842041 18.78320312 6.84912109 C22.35871219 8.70539309 25.96017119 10.50899614 29.5625 12.3125 C30.20421143 12.63734375 30.84592285 12.9621875 31.50708008 13.296875 C34.57325987 14.83896307 37.64667594 16.30040758 40.80859375 17.63671875 C43.74124958 18.88946891 46.27274586 20.36364752 49 22 C50.11375 22.474375 51.2275 22.94875 52.375 23.4375 C55.42498765 24.75214985 58.24034069 26.20194073 61.09375 27.89453125 C62.51230019 28.71717409 63.95396449 29.5002119 65.40625 30.26171875 C66.2209375 30.69097656 67.035625 31.12023437 67.875 31.5625 C68.63554688 31.95566406 69.39609375 32.34882813 70.1796875 32.75390625 C72 34 72 34 73 37 C68.08002374 36.51764939 65.15915887 35.55221113 61 33 C58.4228617 31.71270109 55.80409273 30.51717631 53.1875 29.3125 C45.40489328 25.68963482 37.71709771 21.9035831 30.05419922 18.03515625 C26.37417061 16.18070875 22.68655537 14.34142804 19 12.5 C17.64580222 11.82297889 16.29163253 11.14590159 14.9375 10.46875 C13.4834375 9.74171875 13.4834375 9.74171875 12 9 C12 8.34 12 7.68 12 7 C11.36191406 6.81824219 10.72382812 6.63648438 10.06640625 6.44921875 C9.24011719 6.19785156 8.41382813 5.94648438 7.5625 5.6875 C6.73878906 5.44386719 5.91507813 5.20023437 5.06640625 4.94921875 C4.38449219 4.63597656 3.70257812 4.32273437 3 4 C2.67 3.01 2.34 2.02 2 1 C1.34 0.67 0.68 0.34 0 0 Z " fill="#828282" transform="translate(963,299)"/>
<path d="M0 0 C2.48099734 0.08649451 4.93344928 0.11565054 7.4140625 0.09765625 C8.50852188 0.09553383 8.50852188 0.09553383 9.62509155 0.09336853 C11.95843585 0.08776531 14.29168464 0.07521235 16.625 0.0625 C18.20572778 0.05748541 19.78645707 0.05292243 21.3671875 0.04882812 C25.24482854 0.03779484 29.12239807 0.02052811 33 0 C33 0.33 33 0.66 33 1 C24.35384013 2.13951166 15.68577612 2.42073107 6.98046875 2.75390625 C5.31487879 2.81956878 3.64929561 2.8854036 1.98371887 2.95140076 C-1.50353142 3.08880618 -4.99086421 3.22381809 -8.47827148 3.35717773 C-12.88800399 3.52603793 -17.2974533 3.70133012 -21.70686531 3.87833595 C-56.65766948 5.27554471 -56.65766948 5.27554471 -73 5 C-67.20626198 -0.79373802 -54.80745515 0.55804634 -47.1875 0.33203125 C-45.89682617 0.28809738 -44.60615234 0.24416351 -43.27636719 0.19889832 C-40.56703386 0.10728282 -37.8576024 0.02129272 -35.14794922 -0.06030273 C-31.672967 -0.16521366 -28.19852862 -0.28240177 -24.72407532 -0.40345287 C-21.39955874 -0.51807024 -18.07478965 -0.62405721 -14.75 -0.73046875 C-13.50114014 -0.77310349 -12.25228027 -0.81573822 -10.96557617 -0.85966492 C-9.24238159 -0.91015739 -9.24238159 -0.91015739 -7.484375 -0.96166992 C-5.96408691 -1.0092469 -5.96408691 -1.0092469 -4.41308594 -1.05778503 C-2 -1 -2 -1 0 0 Z " fill="#9E9E9E" transform="translate(905,329)"/>
<path d="M0 0 C4.10665363 3.87476608 7.39961404 8.04432623 10.6875 12.625 C11.41549805 13.62660156 11.41549805 13.62660156 12.15820312 14.6484375 C14.15616873 17.40425212 16.1114221 20.16713316 18 23 C18.99 23.33 19.98 23.66 21 24 C22.53515625 25.99609375 22.53515625 25.99609375 24.0625 28.4375 C25.61468524 30.89808881 26.93883462 32.93883462 29 35 C30.31881375 37.94793662 31.29981122 40.84915051 32 44 C30.0625 43.1875 30.0625 43.1875 28 42 C27.67 41.01 27.34 40.02 27 39 C26.01 39 25.02 39 24 39 C23.443125 37.824375 22.88625 36.64875 22.3125 35.4375 C20.8498199 32.49124438 19.26026788 29.83737025 17.3125 27.1875 C15 24 15 24 14 21 C12.9790625 19.9790625 12.9790625 19.9790625 11.9375 18.9375 C11.298125 18.298125 10.65875 17.65875 10 17 C10 16.34 10 15.68 10 15 C9.01 14.67 8.02 14.34 7 14 C5.17578125 11.6015625 5.17578125 11.6015625 3.3125 8.625 C2.68988281 7.64789063 2.06726563 6.67078125 1.42578125 5.6640625 C0 3 0 3 0 0 Z " fill="#888888" transform="translate(863,403)"/>
<path d="M0 0 C0 0.33 0 0.66 0 1 C-14.01151797 2.1905962 -28.0288396 3.23695269 -42.0625 4.125 C-43.09286377 4.19143707 -43.09286377 4.19143707 -44.14404297 4.25921631 C-51.10447054 4.70601177 -58.02406146 5.12441164 -65 5 C-63 2 -63 2 -59.94921875 1.3125 C-55.54582816 0.96406158 -51.22550787 0.93390055 -46.8125 1 C-39.77048585 1.05752852 -32.78055542 0.90359964 -25.75 0.5 C-17.15348099 0.00744269 -8.61020977 -0.10822889 0 0 Z " fill="#BBBBBB" transform="translate(888,332)"/>
<path d="M0 0 C4.0663464 1.3554488 4.13244789 3.26489579 6 7 C7.31337396 8.0260734 8.64664105 9.02727325 10 10 C11.01234307 11.65919839 12.01009383 13.32731845 13 15 C15.08590719 17.88357725 17.21829086 20.728499 19.35546875 23.57421875 C21 26 21 26 21 28 C21.66 28 22.32 28 23 28 C23.33 29.98 23.66 31.96 24 34 C19.87334828 30.09252941 16.49348955 25.88178369 13.125 21.3125 C12.60196289 20.60714111 12.07892578 19.90178223 11.54003906 19.17504883 C10.02124738 17.12064121 8.50986593 15.06097215 7 13 C6.22914063 11.95585937 5.45828125 10.91171875 4.6640625 9.8359375 C4.03242187 8.96195312 3.40078125 8.08796875 2.75 7.1875 C2.20859375 6.43855469 1.6671875 5.68960937 1.109375 4.91796875 C0 3 0 3 0 0 Z " fill="#6D6D6C" transform="translate(841,378)"/>
<path d="M0 0 C3.63613654 0.60465983 3.96996518 0.96246834 6.47265625 4.08984375 C7.3470032 5.36487778 8.20994043 6.64779595 9.0625 7.9375 C12.40727537 13.03892026 12.40727537 13.03892026 17 17 C18.13862424 19.00021095 19.19368565 21.04903226 20.1875 23.125 C20.71730469 24.22070312 21.24710938 25.31640625 21.79296875 26.4453125 C22.19128906 27.28835938 22.58960938 28.13140625 23 29 C22.01 29 21.02 29 20 29 C18.32055471 26.95071297 16.84586839 24.94221163 15.375 22.75 C14.4897447 21.46643737 13.60299499 20.18390427 12.71484375 18.90234375 C12.26608887 18.25120605 11.81733398 17.60006836 11.35498047 16.92919922 C8.59773521 13.00347813 5.64099194 9.22617407 2.71484375 5.42578125 C1 3 1 3 0 0 Z " fill="#696A69" transform="translate(818,348)"/>
<path d="M0 0 C2.475 0.495 2.475 0.495 5 1 C5 1.66 5 2.32 5 3 C5.82886719 3.2475 6.65773438 3.495 7.51171875 3.75 C11.49746461 5.1782628 15.0923615 6.99656931 18.8125 9 C19.49248047 9.35578125 20.17246094 9.7115625 20.87304688 10.078125 C25.87578656 12.75157313 25.87578656 12.75157313 27 15 C24.69 14.67 22.38 14.34 20 14 C20 13.34 20 12.68 20 12 C18.9275 11.79375 17.855 11.5875 16.75 11.375 C10.74637297 9.90648691 5.42924997 6.87750248 0 4 C0 2.68 0 1.36 0 0 Z " fill="#878787" transform="translate(911,272)"/>
<path d="M0 0 C6.89274423 2.43273326 11.81037323 6.08523279 16 12 C16 13.32 16 14.64 16 16 C14.35 16.33 12.7 16.66 11 17 C10.34 16.01 9.68 15.02 9 14 C10.65 14 12.3 14 14 14 C10.94518008 10.58274382 7.95233615 8.80120878 3.8125 6.875 C-1.89432177 4.21135647 -1.89432177 4.21135647 -3 2 C-2.01 2 -1.02 2 0 2 C0 1.34 0 0.68 0 0 Z " fill="#474747" transform="translate(1022,322)"/>
<path d="M0 0 C0.66 0 1.32 0 2 0 C3.4375 1.8984375 3.4375 1.8984375 5 4.375 C6.57112484 6.84952162 7.92383041 8.92383041 10 11 C11.31881375 13.94793662 12.29981122 16.84915051 13 20 C8.98849407 18.5184287 7.83595637 16.42872469 5.9375 12.6875 C4.4630544 9.82073972 3.00893235 7.01448658 1.31640625 4.26953125 C0 2 0 2 0 0 Z " fill="#8F8F8F" transform="translate(882,427)"/>
<path d="M0 0 C1.98 0 3.96 0 6 0 C6.33 0.66 6.66 1.32 7 2 C5.35 1.67 3.7 1.34 2 1 C2.08265179 2.93501536 2.08265179 2.93501536 3 5 C5.46524476 6.50987073 5.46524476 6.50987073 8.4375 7.625 C13.83443709 9.83443709 13.83443709 9.83443709 16 12 C14.56138706 11.91253716 13.12402492 11.80434652 11.6875 11.6875 C10.88699219 11.62949219 10.08648438 11.57148438 9.26171875 11.51171875 C6.60062309 10.90964011 5.84434073 9.92700026 4 8 C3.01 8 2.02 8 1 8 C0.67 5.36 0.34 2.72 0 0 Z " fill="#535353" transform="translate(909,271)"/>
<path d="M0 0 C4.45936282 -0.3913152 6.97791276 0.78240738 10.8125 3 C11.78832031 3.556875 12.76414062 4.11375 13.76953125 4.6875 C14.50558594 5.120625 15.24164062 5.55375 16 6 C15.67 6.66 15.34 7.32 15 8 C10.6570138 7.34197179 6.92722404 5.96361202 3 4 C2.67 3.01 2.34 2.02 2 1 C1.34 0.67 0.68 0.34 0 0 Z " fill="#898989" transform="translate(963,299)"/>
<path d="M0 0 C-6.93 2.97 -6.93 2.97 -14 6 C-14 6.66 -14 7.32 -14 8 C-12.03852126 9.38938077 -10.03833424 10.7260411 -8 12 C-8.99 12.495 -8.99 12.495 -10 13 C-12.97 11.02 -15.94 9.04 -19 7 C-15.97735851 3.97735851 -13.94215621 2.88051065 -10.0625 1.25 C-9.02222656 0.80140625 -7.98195313 0.3528125 -6.91015625 -0.109375 C-4 -1 -4 -1 0 0 Z " fill="#313131" transform="translate(828,666)"/>
<path d="M0 0 C2.475 0.495 2.475 0.495 5 1 C5 1.66 5 2.32 5 3 C6.98 3.66 8.96 4.32 11 5 C11 5.99 11 6.98 11 8 C6.66956925 7.49646154 3.45523687 6.74386457 0 4 C0 2.68 0 1.36 0 0 Z " fill="#808080" transform="translate(911,272)"/>
<path d="M0 0 C7.63076923 1.47692308 7.63076923 1.47692308 9.5 4.125 C9.665 4.74375 9.83 5.3625 10 6 C3.52443609 5.38909774 3.52443609 5.38909774 1.0625 3.5625 C0 2 0 2 0 0 Z " fill="#929292" transform="translate(1026,330)"/>
<path d="M0 0 C5.75 0.875 5.75 0.875 8 2 C8 2.66 8 3.32 8 4 C8.928125 4.268125 9.85625 4.53625 10.8125 4.8125 C13.76240366 5.91148371 15.05615186 6.62418561 17 9 C14.25101983 8.34811656 11.59725645 7.57820751 8.9375 6.625 C8.26589844 6.39039063 7.59429688 6.15578125 6.90234375 5.9140625 C4.77991041 4.89424854 3.57212842 3.73691242 2 2 C1.34 1.34 0.68 0.68 0 0 Z " fill="#5D5D5D" transform="translate(967,304)"/>
<path d="M0 0 C1.32 0 2.64 0 4 0 C4 0.66 4 1.32 4 2 C4.55171875 2.11214844 5.1034375 2.22429687 5.671875 2.33984375 C8.40065211 3.11360773 10.72772943 4.26817694 13.25 5.5625 C14.14203125 6.01753906 15.0340625 6.47257812 15.953125 6.94140625 C16.96632813 7.46541016 16.96632813 7.46541016 18 8 C15.18762929 9.14356445 14.17066212 9.07034549 11.30859375 7.890625 C10.36113281 7.34921875 9.41367187 6.8078125 8.4375 6.25 C7.48746094 5.71890625 6.53742187 5.1878125 5.55859375 4.640625 C3.36943137 3.23688729 1.72288408 1.92591755 0 0 Z " fill="#606060" transform="translate(950,290)"/>
<path d="M0 0 C2.5 2.25 2.5 2.25 5 5 C5 6.32 5 7.64 5 9 C3.35 9.33 1.7 9.66 0 10 C-0.66 9.01 -1.32 8.02 -2 7 C-0.35 7 1.3 7 3 7 C2.38125 6.38125 1.7625 5.7625 1.125 5.125 C-0.25 3.75 -1.625 2.375 -3 1 C-2.01 0.67 -1.02 0.34 0 0 Z " fill="#595A5A" transform="translate(1033,329)"/>
<path d="M0 0 C-1.6875 2.5 -1.6875 2.5 -4 5 C-6.75 5.3125 -6.75 5.3125 -9 5 C-8.00233891 2.50584728 -7.31383315 1.21259665 -5.0625 -0.3125 C-3 -1 -3 -1 0 0 Z " fill="#B3B3B3" transform="translate(824,336)"/>
<path d="M0 0 C0.66 0 1.32 0 2 0 C2.33 0.66 2.66 1.32 3 2 C5.3140622 2.73075648 7.64828869 3.40138258 10 4 C8.75 5.5 8.75 5.5 7 7 C5.68 7 4.36 7 3 7 C0 2.92857143 0 2.92857143 0 0 Z " fill="#BCBCBC" transform="translate(892,440)"/>
<path d="M0 0 C0.66 0 1.32 0 2 0 C3.4375 1.828125 3.4375 1.828125 5 4.25 C5.515625 5.03890625 6.03125 5.8278125 6.5625 6.640625 C7.82983586 8.72070886 8.9519458 10.80311715 10 13 C5.89601599 9.72805658 2.28938344 6.84810612 0 2 C0 1.34 0 0.68 0 0 Z " fill="#AAAAAA" transform="translate(882,427)"/>
<path d="M0 0 C0.33 0.66 0.66 1.32 1 2 C1.66 2 2.32 2 3 2 C4.04644066 3.63790712 5.0398183 5.31008021 6 7 C6.98244845 8.34631825 7.97676564 9.68441297 9 11 C8.67 11.66 8.34 12.32 8 13 C6.6578508 11.40320196 5.32652885 9.79729803 4 8.1875 C2.88625 6.84751953 2.88625 6.84751953 1.75 5.48046875 C0 3 0 3 0 0 Z " fill="#ABABAB" transform="translate(858,393)"/>
<path d="M0 0 C10.74259681 2.70615034 10.74259681 2.70615034 14 7 C9.24190251 6.40523781 5.05289706 4.5093872 1 2 C0.67 1.34 0.34 0.68 0 0 Z " fill="#5C5C5C" transform="translate(1017,329)"/>
<path d="M0 0 C2.31 0 4.62 0 7 0 C7.99 1.98 8.98 3.96 10 6 C8.02 5.34 6.04 4.68 4 4 C4 3.34 4 2.68 4 2 C2.68 1.34 1.36 0.68 0 0 Z " fill="#777777" transform="translate(957,298)"/>
<path d="M0 0 C2.97 0.495 2.97 0.495 6 1 C6.33 1.99 6.66 2.98 7 4 C4.69 3.67 2.38 3.34 0 3 C0 2.01 0 1.02 0 0 Z " fill="#8C8C8C" transform="translate(1001,318)"/>
<path d="M0 0 C3.82097239 0.53069061 6.06171403 1.49701566 9 4 C8.34 4.66 7.68 5.32 7 6 C6.01 5.34 5.02 4.68 4 4 C4 3.34 4 2.68 4 2 C2.68 2 1.36 2 0 2 C0 1.34 0 0.68 0 0 Z " fill="#545353" transform="translate(984,313)"/>
<path d="M0 0 C3.03061766 2.02041177 3.72239767 2.75685563 5 6 C5 6.99 5 7.98 5 9 C4.34 9 3.68 9 3 9 C0 3.375 0 3.375 0 0 Z " fill="#818181" transform="translate(884,433)"/>
<path d="M0 0 C0.33 0.66 0.66 1.32 1 2 C1.99 2.33 2.98 2.66 4 3 C4 4.32 4 5.64 4 7 C3.01 7.33 2.02 7.66 1 8 C0.67 5.36 0.34 2.72 0 0 Z " fill="#2F2F2F" transform="translate(906,271)"/>
</svg>
